<?xml version="1.0" encoding="UTF-8"?>
<svg id="Layer_2" data-name="Layer 2" xmlns="http://www.w3.org/2000/svg" viewBox="0 0 166.44 202.19">
  <defs>
    <style>
      .cls-1 {
        fill: #000;
      }

      .cls-1, .cls-2 {
        stroke-width: 0px;
      }

      .cls-2 {
        fill: #31da07;
      }
    </style>
  </defs>
  <g id="Layer_1-2" data-name="Layer 1">
    <g>
      <path class="cls-1" d="M55.05,202.19c-.25,0-.5,0-.75-.03-3.04-.2-5.87-1.69-7.76-4.07-1.98-2.49-2.8-5.81-2.26-9.09.23-1.42.69-2.61,1.02-3.48.1-.27.24-.63.29-.79.5-3.29.85-6.23,1.08-8.96-1.6-1.8-3.14-4.46-3.25-8.03-.16,0-.33.01-.49.01-1.81,0-3.57-.53-5.09-1.52-3.45-2.27-5.07-4.68-5.55-7.78-1.79-.36-3.46-1.22-4.81-2.5l-1.88-1.77c-3.04-2.86-5.91-5.56-8.79-8.38-1.96-1.92-3.9-3.88-5.78-5.78-2.49-2.51-5.06-5.12-7.62-7.55-5.8-5.51-2.69-11.49-1.67-13.45,9.74-18.72,23.64-34.07,37.08-48.92,1.94-2.15,3.89-4.3,5.82-6.45,1.03-1.15,2.14-1.77,3.01-2.17,1.02-.53,2.13-.79,3.23-.79,1.79,0,3.56.68,4.9,2l47.02,46.12c2.52,2.47,2.81,6.42.67,9.23-.31.41-.59.8-.85,1.16-.64.89-1.31,1.81-2.16,2.73-12.47,13.48-24.19,29.8-36.9,51.35-.21.4-.47,1.55-.45,2.03.25,2.52.79,5.16,1.37,7.95.25,1.2.5,2.41.73,3.61.03.16.07.3.11.46.17.69.44,1.74.49,2.99.14,3.34-.96,6.41-3.11,8.64-2,2.09-4.72,3.24-7.66,3.24Z"/>
      <path class="cls-1" d="M110.45,110.18c-1.86,0-3.64-.74-4.96-2.06l-47.09-47.2c-2.7-2.71-2.73-7.08-.06-9.82,1.97-2.02,5.09-4.71,9.51-4.71,4.03,0,7.07,2.25,9.01,3.95,1.26,1.1,2.4,2.22,3.51,3.31,1.04,1.02,2.03,1.99,3.02,2.85,1.66,1.44,2.82,1.95,3.36,1.95.45,0,1.39-.45,2.72-1.72,2.83-2.71,5.63-6.16,8.83-10.84,2.49-3.65,4.93-7.5,7.29-11.22,2.92-4.6,5.94-9.37,9.17-13.96,3.94-5.61,8.19-10.42,12.61-14.3,4.76-4.18,10.22-6.39,15.79-6.39,7.84,0,15.07,4.41,19.82,12.1,4.43,7.16,4.64,14.8.61,21.5-2.87,4.76-6.07,8.59-9.51,11.36-5.74,4.63-11.84,8.77-17.74,12.79l-2.19,1.49c-2.81,1.91-5.67,3.75-8.44,5.53-3.14,2.01-6.39,4.1-9.44,6.23-2.41,1.68-4.69,3.7-6.59,5.85-2.2,2.48-2.37,3.09.08,5.97.89,1.05,1.91,2.09,2.99,3.19,1.01,1.04,2.06,2.11,3.09,3.28,5.49,6.21,5.45,12.27-.13,18.55-1.28,1.44-3.1,2.29-5.03,2.35-.07,0-.14,0-.2,0Z"/>
      <path class="cls-1" d="M101.31,119.04c-1.79,0-3.58-.68-4.95-2.05l-47.62-47.63c-1.39-1.39-2.13-3.3-2.04-5.27.09-1.97,1-3.8,2.51-5.06l1.28-1.06c.97-.8,1.93-1.6,2.88-2.41.45-.39.88-.8,1.19-1.1l.42-.4c1.35-1.26,3.06-1.88,4.77-1.88s3.59.69,4.95,2.05l47.28,47.36c1.33,1.33,2.07,3.14,2.05,5.02-.02,1.88-.79,3.67-2.15,4.97l-5.73,5.51c-1.36,1.3-3.1,1.95-4.85,1.95Z"/>
      <path class="cls-2" d="M41.24,144.67c-1.62,2.01-3.14,3.9-4.74,5.89-1.05,1.31-2.99,1.44-4.21.29-3.64-3.44-7.15-6.71-10.58-10.07-4.53-4.43-8.88-9.04-13.47-13.4-1.93-1.83-1.32-3.13-.27-5.14,10.69-20.54,26.68-36.94,41.9-53.94.31-.35.83-.52,1.02-.63,15.67,15.37,31.24,30.64,47.02,46.12-1.03,1.36-1.72,2.44-2.58,3.37-14.76,15.96-26.79,33.89-37.79,52.55-.93,1.58-1.57,4.38-1.39,6.21.4,4.11,1.42,8.16,2.19,12.23.15.81.45,1.62.48,2.43.12,2.81-1.63,4.75-4.05,4.59-2.37-.16-4.03-2.35-3.59-5.04.24-1.46,1.09-2.82,1.31-4.28.55-3.61,1-7.25,1.26-10.89.07-1.02-.35-2.46-1.08-3.09-3.03-2.61-2.57-5.65-1.21-8.66,3.08-6.82,6.35-13.56,9.55-20.33.55-1.17,1.13-2.33,1.7-3.5-.29-.22-.57-.43-.86-.65-5.71,7.06-11.43,14.12-17.12,21.15-.74.92-2.06,1.14-3.04.49-3.56-2.34-3.21-3.83-.45-15.71Z"/>
      <path class="cls-2" d="M110.45,103.18c-15.87-15.91-31.48-31.55-47.09-47.2,3.19-3.28,5.33-3.49,8.89-.37,2.26,1.97,4.28,4.21,6.55,6.17,5.49,4.77,10.27,5.02,15.51,0,3.69-3.54,6.88-7.71,9.77-11.95,5.63-8.26,10.65-16.93,16.4-25.1,3.33-4.73,7.17-9.27,11.51-13.08,8.65-7.6,18.99-5.65,25.03,4.13,2.88,4.66,3.35,9.59.57,14.21-2.11,3.51-4.75,6.98-7.91,9.52-6.21,5-12.88,9.44-19.48,13.94-5.91,4.03-12.08,7.7-17.95,11.8-2.84,1.98-5.52,4.35-7.82,6.94-4.66,5.25-4.57,9.81,0,15.15,1.94,2.28,4.17,4.31,6.16,6.56,3.17,3.59,3.07,5.67-.12,9.27Z"/>
      <path class="cls-2" d="M53.68,64.41c1.42-1.18,2.84-2.34,4.24-3.54.76-.65,1.46-1.35,1.84-1.7,15.81,15.84,31.54,31.59,47.28,47.36-1.65,1.59-3.79,3.64-5.73,5.51-15.61-15.61-31.25-31.26-47.62-47.63Z"/>
    </g>
  </g>
</svg>