<?xml version="1.0" standalone="no"?>
<!DOCTYPE svg PUBLIC "-//W3C//DTD SVG 20010904//EN"
 "http://www.w3.org/TR/2001/REC-SVG-20010904/DTD/svg10.dtd">
<svg version="1.0" xmlns="http://www.w3.org/2000/svg"
 width="700.000000pt" height="700.000000pt" viewBox="0 0 700.000000 700.000000"
 preserveAspectRatio="xMidYMid meet">
<metadata>
Created by potrace 1.14, written by Peter Selinger 2001-2017
</metadata>
<g transform="translate(0.000000,700.000000) scale(0.100000,-0.100000)"
fill="#000000" stroke="none">
<path d="M1250 6993 c-141 -15 -348 -77 -480 -143 -386 -196 -644 -533 -742
-971 l-23 -104 0 -2275 0 -2275 23 -104 c128 -569 527 -968 1095 -1093 l102
-23 2275 0 2275 0 100 22 c137 31 213 56 331 113 395 187 668 536 766 983 l23
102 0 2275 0 2275 -23 102 c-99 447 -371 796 -766 983 -118 56 -164 73 -306
108 l-105 27 -2255 1 c-1240 0 -2271 -1 -2290 -3z m1395 -1553 c825 -5 1985
-13 2578 -16 l1077 -6 0 -249 0 -249 -140 0 -140 0 0 -1133 c0 -624 -3 -1269
-7 -1435 l-6 -302 141 0 142 0 0 -250 0 -250 -647 0 c-867 0 -3923 18 -4490
26 l-453 6 0 249 0 249 139 0 138 0 7 323 c3 177 8 729 11 1227 3 498 8 998
11 1113 l6 207 -141 0 -141 0 0 250 0 250 208 0 c114 0 882 -4 1707 -10z"/>
<path d="M1529 4914 c-4 -128 -24 -2830 -21 -2834 2 -2 301 -6 665 -8 l662 -4
-2 230 c-2 210 -1 231 15 236 134 41 975 38 1130 -3 l27 -7 0 -215 c0 -118 -3
-221 -7 -230 -6 -14 63 -16 739 -23 410 -3 747 -5 749 -3 2 2 6 647 10 1433
l7 1431 -839 6 c-461 4 -1355 10 -1986 13 l-1148 7 -1 -29z m2249 -200 l1462
-7 0 -485 0 -485 -1402 7 c-772 3 -1550 9 -1730 13 l-328 6 0 371 c0 204 3
422 7 485 l6 114 261 -7 c144 -3 919 -9 1724 -12z m-30 -1100 c815 -4 1484
-10 1486 -13 1 -3 1 -222 -2 -485 l-5 -479 -1411 7 c-776 3 -1554 9 -1728 13
l-318 6 0 221 c0 122 3 340 7 485 l6 264 241 -6 c133 -4 908 -10 1724 -13z"/>
</g>
</svg>
