<?xml version="1.0" encoding="UTF-8"?>
<svg id="Layer_2" data-name="Layer 2" xmlns="http://www.w3.org/2000/svg" viewBox="0 0 251.32 175.36">
  <defs>
    <style>
      .cls-1 {
        fill: #fff;
        stroke-width: 0px;
      }
    </style>
  </defs>
  <g id="Layer_1-2" data-name="Layer 1">
    <g>
      <path class="cls-1" d="M251.26,24.04c.02-7.53.04-15.06.06-22.59-11.7-.03-23.4-.07-35.1-.11C144.67,1.08,73.11.64,1.56,0c-.07,7.53-.13,15.06-.2,22.59,4.14.04,8.27.04,12.41.08-.37,42.91-.74,85.81-1.11,128.72-4.15-.04-8.3-.04-12.45-.08-.07,7.53-.13,15.06-.2,22.59,67.5.61,134.99,1.02,202.49,1.28,0,0,0,.01,0,.02,1.85,0,3.7.01,5.54.02.37,0,.75,0,1.12,0,0,0,0,0,0,0,13.9.05,27.81.1,41.71.13.02-7.53.04-15.06.06-22.59-4.15-.01-8.3-.03-12.45-.04.13-42.91.25-85.82.38-128.72,4.14.01,8.27.03,12.41.04ZM208.07,152.63c-20.13-.07-40.27-.28-60.4-.38.43-.58.7-1.18.7-1.8,0-.15-.12-.3-.14-.45.03-.15.15-.29.15-.44,0-.15-.12-.3-.15-.45.03-.15.15-.29.15-.43,0-.15-.13-.3-.16-.45.03-.15.16-.29.16-.43,0-.15-.13-.3-.16-.45.03-.15.17-.28.17-.43,0-.15-.13-.3-.17-.45.04-.15.17-.28.17-.43,0-.16-.14-.3-.18-.45.04-.15.18-.28.18-.43,0-.16-.14-.3-.18-.45.05-.15.19-.28.19-.43,0-.16-.15-.3-.19-.45.05-.15.2-.28.2-.43,0-.16-.15-.3-.2-.46.05-.14.21-.28.21-.43,0-.16-.16-.3-.22-.46.06-.14.22-.28.22-.43,0-.16-.16-.3-.23-.46.07-.14.23-.28.23-.43,0-.16-.17-.3-.24-.46.07-.14.24-.28.25-.43,0-.16-.17-.3-.26-.46.08-.14.26-.28.26-.43,0-.16-.18-.31-.27-.46.1-.14.28-.28.28-.43,0-.16-.18-.31-.29-.46.11-.14.3-.28.3-.43,0-.16-.19-.31-.32-.46.13-.14.32-.28.32-.43,0-.16-.2-.31-.34-.46.15-.14.35-.28.35-.42,0-.16-.2-.31-.37-.46.18-.14.38-.28.38-.42,0-.16-.2-.31-.41-.47.21-.14.42-.27.42-.42,0-.16-.2-.32-.46-.47.26-.14.46-.27.46-.42,0-.16-.19-.32-.52-.47.33-.13.52-.27.52-.41,0-1.18-11.84-2.19-26.46-2.27-14.62-.09-26.48.79-26.49,1.96,0,.14.19.28.52.42-.33.15-.52.31-.52.47,0,.14.2.28.46.42-.26.15-.46.31-.46.47,0,.14.2.28.41.42-.21.15-.42.3-.42.46,0,.15.2.29.37.43-.18.15-.38.3-.38.46,0,.15.2.29.34.43-.15.15-.35.3-.35.46,0,.15.19.29.31.43-.13.15-.32.3-.32.46,0,.15.18.29.29.43-.11.15-.3.3-.3.46,0,.15.18.29.27.43-.1.15-.28.3-.28.46,0,.15.17.29.26.43-.08.15-.26.3-.26.45,0,.15.17.29.24.43-.08.15-.24.3-.25.45,0,.15.16.29.23.43-.07.15-.23.3-.23.45,0,.15.16.29.21.43-.06.15-.22.3-.22.45,0,.15.15.29.2.43-.05.15-.21.3-.21.45,0,.15.15.29.19.43-.05.15-.2.3-.2.45,0,.15.14.29.18.43-.04.15-.19.3-.19.45,0,.15.14.29.18.44-.04.15-.18.3-.18.45,0,.15.13.29.17.44-.04.15-.17.3-.17.45,0,.15.13.29.16.44-.04.15-.17.3-.17.45,0,.15.12.29.16.44-.03.15-.16.3-.16.45,0,.15.12.29.15.44-.03.15-.16.3-.16.45,0,.15.12.29.14.44-.03.15-.15.3-.15.45,0,.61.25,1.21.66,1.79-19.98-.13-39.96-.22-59.95-.38.35-42.91.69-85.82,1.04-128.72,55.31.45,110.62.82,165.93,1.03,0,.01,0,.03,0,.04,4.14.02,8.27.02,12.41.04-.15,42.91-.3,85.82-.45,128.72-2.32,0-4.63-.02-6.95-.02Z"/>
      <path class="cls-1" d="M48.41,76.12c51.72.4,103.45.7,155.17.9.05-14.5.11-29.01.17-43.51-51.66-.2-103.33-.5-155-.9-.11,14.5-.22,29.01-.34,43.51Z"/>
      <path class="cls-1" d="M48.03,125.49c51.79.4,103.58.7,155.36.9.06-14.5.11-29.01.17-43.51-51.73-.2-103.46-.5-155.19-.9-.11,14.5-.22,29.01-.34,43.51Z"/>
    </g>
  </g>
</svg>