<?xml version="1.0" encoding="UTF-8"?>
<svg id="Layer_2" data-name="Layer 2" xmlns="http://www.w3.org/2000/svg" viewBox="0 0 872.43 534.24">
  <defs>
    <style>
      .cls-1, .cls-2 {
        stroke-width: 0px;
      }

      .cls-2 {
        fill: #7f0;
      }
    </style>
  </defs>
  <g id="Layer_1-2" data-name="Layer 1">
    <g>
      <path class="cls-1" d="M872.19,395.24c-1.46-9.9-8.8-17.91-18.65-20.42-.05-.01-.1-.02-.15-.04-1.18-.4-3.33-1.07-6.02-1.42-.13-.02-.26-.03-.39-.05-4.16-1.01-8.65-1.52-13.34-1.52-1.73,0-3.54.07-5.39.21-.45-.08-.89-.16-1.34-.21-1.05-.14-2.12-.21-3.17-.21-1.39,0-2.78.12-4.16.36-.23,0-.46-.01-.69-.01-1.84,0-3.7.21-5.55.64-.65.15-1.31.34-1.95.54-2.72.2-5.34.84-7.8,1.9-.61.13-1.21.28-1.8.45-4.27,1.26-8.18,2.66-11.96,4.02l-.16.06c-2.19.79-4.27,1.53-6.28,2.2-.6.2-1.2.42-1.8.68-.18.07-.36.14-.54.21l-.17.07c-1.56.61-3.87,1.51-6.45,3.03-4.1,1.56-7.44,3.54-10.19,5.17-.91.54-1.85,1.1-2.42,1.39-.45.23-.89.47-1.31.72-1.35.8-2.66,1.62-3.89,2.4,1.33-4.04,1.57-8.43.63-12.76,0-.36,0-.76-.01-1.2.12-.55.21-1.09.3-1.64.38-1.15.69-2.21.98-3.19.12-.42.36-1.22.5-1.64.55-1.09,1.03-2.23,1.4-3.39.16-.5.31-1,.44-1.5.68-1.44,1.44-3.06,2.17-4.9.26-.66.5-1.33.7-2.02.41-.72.78-1.46,1.12-2.22.91-1.56,1.56-2.92,2.07-3.97l.25-.52c.42-.75,1.25-2.26,1.98-4.35,2.67-4.32,4.8-8.59,6.69-12.38l.38-.77c.25-.5.52-.99.79-1.47l.13-.23c.4-.73.8-1.47,1.18-2.18.06-.12.12-.24.18-.35,1.5-2.25,2.43-4.3,2.95-5.45,2-3.44,4.87-8.5,7.39-13.88l.51-.94c5.81-10.78,12.4-22.99,15.08-37.96.2-1.1.32-2.22.35-3.34l.09-.56c.29-1.88.35-3.79.18-5.69-.28-3.08-.97-5.69-1.43-7.41,0,0-.21-.79-.24-.9-.32-1.13-.71-2.23-1.18-3.29-.39-1.13-.88-2.24-1.42-3.27-1.13-2.16-2.53-4.07-4.27-5.85-3.45-4.04-8-7.22-13.19-9.23-.8-.43-1.63-.81-2.47-1.14-2.46-1.25-5.1-2.1-7.89-2.54-.82-.28-1.67-.51-2.52-.7-1.58-.35-3.2-.53-4.82-.55-1.61-.31-3.19-.46-4.81-.46-1.03,0-2.06.06-3.08.19h-.02c-1.11,0-2.23.07-3.32.21-.49.01-.98.04-1.46.08-1.25.11-2.5.31-3.72.61-.25.03-.51.06-.76.09-.01,0-.14.02-.15.02-1.77.25-3.51.7-5.19,1.33-.59.13-1.17.28-1.73.45-4.5,1.28-8.4,3.11-11.35,4.6-.99.39-1.97.81-2.92,1.24.92-1.89,1.82-3.84,2.71-5.84,4.87-10.99,7.81-20.18,8.99-28.07.03-.22.06-.44.09-.67.65-5.48.86-11.62.62-18.25-.73-19.91-6.76-33.47-18.44-41.49-5.67-3.86-12.29-5.9-19.16-5.9-.43,0-.85,0-1.3.02-4.02.15-8.08.99-12.12,2.51.6-2.43,1.27-5.11,2.02-8.07,2.66-10.44,5.32-20.44,7.91-29.7.01-.04,3.84-14.1,3.84-14.14.05-.18.1-.37.14-.55,1.19-4.87,1.61-7.95,1.49-10.97v-.14c3.64-1.95,7.51-5.29,10.26-11.02,2.76-3.6,4.62-8.14,5.53-13.49.75-4.31,1.06-8.11.93-11.62-.34-9.21-3.82-17.37-10.09-23.62l-.25-.24c-6.16-5.95-13.88-9.1-22.31-9.1-.4,0-.8,0-1.21.02-7.35.27-14.17,2.82-19.71,7.35-3.91,3.16-7.12,7.26-9.84,12.52-.09.18-.19.37-.27.53-4.47,9.25-10.27,26.37-17.74,52.36-7.13,24.8-13.59,50.18-19.2,75.43-.14.65-.29,1.3-.43,1.95-.93-.52-1.74-.94-2.38-1.27-5.56-2.86-11.32-4.49-17.15-4.86.02-1.55,0-3.08-.06-4.61-.49-13.46-2.95-24.6-7.51-34.06l-.13-.27c-.24-.49-.41-.84-.52-1.08-1.25-3.86-3.22-6.67-4.29-8.2-.17-.24-.34-.47-.52-.71-.62-.82-1.88-2.45-6.55-8.36-.01-.01-.11-.14-.12-.15-7.88-9.79-18.64-18.13-31.98-24.78-12.37-6.17-26.26-10.57-41.28-13.09-7.77-1.32-15.42-2.15-22.73-2.49-3.22-.15-6.84-.22-10.76-.22-4.69,0-9.98.11-15.73.32-11.07.41-21.56,1.2-31.21,2.37-.55-.36-1.12-.72-1.71-1.07-2.28-2.15-5.05-3.91-8.23-5.24-1.54-.65-3.38-1.3-5.77-2.06l-.24-.08c-7.52-2.31-14.3-4.07-20.15-5.23l-.25-.05c-13.02-2.44-28.42-3.68-45.77-3.7-.32-3.47-1.4-6.81-3.14-9.8-2.67-10.46-12.09-17.92-22.88-17.92-.28,0-.57,0-.86.02-8.86.32-16.18,5.15-20.67,13.61-1.71,2.2-3.15,4.77-4.5,7.79.58-2.56.82-5.01.74-7.39-.2-5.71-2.4-11.07-6.22-15.21-4.1-7.68-11.92-12.4-20.68-12.4-.28,0-.55,0-.81.01-3.96.14-11.41,1.43-17.28,8.5-4.52,4.28-6.74,9.71-7.96,12.66-1.35,3.29-3.09,7.91-5.34,14.16-2.96,8.27-3.86,10.49-4.01,10.84-.11.23-.21.46-.3.67-.38.88-.92,2.25-2.6,6.96-19.24,3.89-34.09,7.03-44.18,9.32-11.59,2.64-23.86,5.73-36.43,9.17-36.29,9.75-66.8,19.93-90.68,30.24-13.27,5.65-22.32,10.84-28.42,16.26,0,0-.17.15-.2.18-10.9,9.84-12.87,20.49-12.61,27.68.08,2.21.39,4.46.94,6.74,1.46,6.01,8.45,25.75,36.98,27.29,1.07.06,2.2.09,3.35.09.85,0,1.74-.02,2.66-.05,1.69-.06,3.81-.22,6.5-.5,1.88-.19,5.18-.61,14.03-2.17,6.16-1.09,15.16-2.77,26.75-5.02,15.53-3.01,28.08-5.4,37.28-7.1,9.05-1.67,17.19-3.08,24.2-4.21,7.11-1.14,15.73-2.45,25.61-3.9-1.5,5.23-2.98,10.61-4.44,16.08-.5-.19-1.01-.38-1.54-.57-6.93-2.59-14.24-3.9-21.72-3.9-.8,0-1.6.01-2.4.04-11.9.44-25.26,4.78-40.84,13.27-15.02,8.19-31.46,23.32-50.28,46.3l-.08.1c-13.96,17.27-26.73,36.72-37.98,57.81-11.3,21.21-19.94,41.94-25.67,61.64-8.3,28.66-10.73,52.68-7.42,73.43.55,3.47,1.28,6.87,2.14,10.03,5.62,21.86,14.31,37.78,26.55,48.68,11.86,10.83,25.91,16.33,41.75,16.33.82,0,1.65-.02,2.49-.05,10.1-.37,20.93-2.88,33.11-7.67.16-.06.32-.13.46-.19,6.04-2.52,14.63-7.04,26.27-13.81,10.97-6.38,22.16-13.34,33.25-20.68,23.55-15.62,42.64-27.49,56.73-35.29,15.89-8.74,16.84-9.26,20.05-13.25.64-.79,1.22-1.63,1.75-2.5.28-.18.56-.37.83-.56,2.11,5.22,4.82,10.08,8.1,14.5,7.7,10.38,18.35,17.09,30.8,19.42.34.06.67.12,1,.16,2.35.33,4.72.5,7.06.5.6,0,1.2-.01,1.81-.03,9.93-.37,19.32-3.63,27.9-9.68.17-.12.34-.24.52-.38,1.55-1.16,3.06-2.46,4.51-3.88,1.03.25,2.08.45,3.14.59.48.06.96.11,1.44.15,1.46.1,3.34.15,6.12.15,2.95,0,7.02-.05,12.11-.16,6.29-.13,12.36-2.85,16.65-7.46,2.63-2.83,4.5-6.28,5.48-9.97,1.44,1.08,2.96,2.06,4.57,2.95.03.02.12.06.15.08,5.29,2.85,10.88,4.3,16.64,4.3.42,0,.84,0,1.25-.02,5.59-.21,11.01-1.77,16.11-4.65.33-.19.66-.38.98-.59,3.26-2.06,6.4-4.9,9.86-8.95,2.15,2.58,4.64,4.62,7.48,6.12.61.51,1.24.99,1.89,1.43,1.02,5.44,2.85,11.01,5.45,16.58,3.45,7.39,10.89,17.06,26.69,21.15.13.03.26.07.34.08,2.78.68,5.68,1.02,8.61,1.02.47,0,.93,0,1.41-.03,11.31-.42,22.13-5.26,32.19-14.41.13-.12.27-.25.4-.37,3.96-3.78,7.96-8.42,12.19-14.11,1.4.08,3.18.12,5.68.12.68,0,1.42,0,2.22,0-.85,1.57-1.59,3.22-2.22,4.92-1.59,2.68-3,5.56-4.21,8.58-1.32,2.34-2.31,4.5-3.05,6.21-.96,1.69-2.01,3.73-2.91,6.22-.93,1.56-1.67,3.2-2.23,4.89-.05.11-.1.22-.15.33-.38.69-.73,1.4-1.06,2.15-.15.35-.29.7-.43,1.06-.32.85-.57,1.62-.77,2.3-.45.86-1.04,2.03-1.61,3.46-1.57,2.83-2.52,5.45-3.15,7.2l-.04.11c-.11.29-.23.64-.31.86-.36.78-.69,1.59-.97,2.41-.29.87-.65,1.81-1.02,2.81l-.03.09c-1.2,3.21-2.7,7.21-3.63,11.94-.06.31-.12.62-.17.94-.12.32-.23.64-.34.98-.3.93-.55,1.88-.74,2.84-.22,1.15-.36,2.31-.41,3.48-.56,3.34-.49,6.72.19,10.04.32,2.49.73,5.19,1.47,8.11.32,1.24.74,2.46,1.25,3.63,1.24,2.83,2.71,4.93,3.57,6.17l.2.29c.91,1.35,1.97,2.61,3.17,3.77,1.45,1.67,3.11,3.14,4.94,4.36.53.45,1.09.89,1.66,1.29,3.34,2.36,7.06,3.85,11.31,4.53,2.27.39,4.58.59,6.85.59h.02c13.95,0,23.81-7.29,29.7-11.65l.11-.08c.5-.37.98-.72,1.44-1.06.02,0,.04-.02.06-.03.79-.37,1.56-.79,2.31-1.25,1.42-.88,2.71-1.74,3.75-2.43.85-.56,1.92-1.28,2.67-1.72,2.82,1.08,5.8,1.63,8.86,1.63.73,0,1.47-.03,2.21-.1.33.01.65.02.98.02,2.25,0,4.48-.28,6.64-.83,4.83-.72,8.65-2.48,11.09-3.74,1.87-.95,3.62-2.1,5.31-3.51,2.74-1.53,5.01-3.12,6.87-4.43.96-.67,2.14-1.5,2.74-1.84,2.12-1.02,4.09-2.25,5.99-3.75.2-.1.39-.21.58-.32,1.36-.55,2.68-1.22,3.91-1.99,9.5-5.6,19.56-9.55,29.94-11.73,0,0,.51-.11.65-.14.27.17.55.33.83.49.4.26.8.5,1.21.74,2.98,2.08,5.84,3.24,8.04,4.02,5.45,2.24,10.38,2.79,13.64,3.15,0,0,.88.1,1.2.14,1.85.31,3.73.47,5.6.47,2.66,0,5.35-.32,8.02-.96.46-.06.93-.13,1.41-.2.93-.13,1.89-.27,2.49-.32.71-.06,1.42-.15,2.1-.27,2.01-.35,3.74-.81,5.03-1.15.42-.11.85-.23,1.11-.29.36-.07.73-.15,1.1-.24.92-.23,1.84-.51,2.74-.85,1.26-.31,2.49-.73,3.68-1.25.13-.04.26-.09.39-.13.19-.07.38-.13.53-.19.83-.31,1.51-.61,1.91-.8,2.72-1.1,5.04-2.3,6.91-3.27,1.09-.56,2.32-1.2,2.93-1.43,1.76-.67,3.44-1.55,4.98-2.62.35-.18,1.05-.51,1.37-.66.83-.4,1.67-.8,2.49-1.22.57-.29,1.13-.61,1.68-.95.37-.23.74-.47,1.11-.72,1.25-.55,2.47-1.22,3.62-1.98.91-.57,2.22-1.27,3.61-2.01,2.58-1.37,5.75-3.05,9.01-5.35,1.54-.71,3-1.58,4.35-2.59.05-.03.1-.06.15-.1,2.06-1.1,4.07-2.37,5.97-3.78,3.35-1.48,5.83-3.29,7.38-4.5,2.83-1.34,5.03-2.78,6.54-3.77.3-.19.59-.39.86-.59.38-.27.76-.56,1.12-.85.85-.38,1.68-.8,2.48-1.26,2.19-.88,4.24-2.04,6.23-3.52,1.53-.8,3.41-1.83,5.36-3.14.08-.04.16-.07.23-.11.63-.3,1.25-.63,1.85-.98,2.09-.86,3.99-1.86,5.77-3.03,2.7-1.21,5.03-2.5,6.93-3.55,1.32-.73,2.57-1.43,3.44-1.8.43-.18.91-.41,1.3-.61l.11-.05c.7-.35,2.15-1.07,3.82-2.22l.41-.29c2.04-1.47,3.81-3.23,5.29-5.23.13-.09.27-.18.4-.27.13-.03.26-.06.39-.09,2.66-.17,5.12-.6,7.51-1.32,1.94-.4,3.81-1.02,5.58-1.84l.39.02c2.33.58,4.58.86,6.84.86,2.06,0,4.11-.24,6.12-.73l.34-.09c11.89-3.08,19.54-14.59,17.79-26.8ZM686.84,422.09c-.08-.26-.16-.52-.25-.77-.03-.3-.05-.61-.09-.93,0-.11,0-.22,0-.33.11-1.15.13-2.31.07-3.46,0-.84.05-2,.11-3.3.04-.85.09-1.76.12-2.72.22-1.37.44-2.85.6-4.51.39-1.8.61-3.56.67-5.33.03-.1.14-.42.14-.42.29-.88.57-1.76.82-2.63.14-.47.26-.96.37-1.45.51-1.16.95-2.28,1.32-3.37.53-1.51.91-3.09,1.15-4.69.23-.65.44-1.31.62-1.97.87-2.11,1.52-4.05,2.12-5.8.42-1.24.89-2.64,1.16-3.22.84-1.76,1.5-3.6,2.01-5.62.15-.29.29-.58.43-.86.15-.29.32-.65.44-.89.47-.74.89-1.51,1.27-2.3.36-.74.68-1.51.96-2.29.45-.82.87-1.65,1.25-2.49.33-.52.64-1.05.93-1.58.09-.16.17-.33.25-.47.11-.21.22-.41.33-.61l.09-.16c.73-1.32,1.82-3.28,2.78-5.79,0,0,.33-.59.49-.88-.11.38-.21.75-.31,1.11-.46,1.68-.73,3.39-.83,5.1l-.13.53c-.76,3.18-1.7,7.13-2.11,11.67-.13,1.35-.15,2.71-.05,4.05,0,.01,0,.03,0,.04-.62,3.31-.6,6.61.08,9.8.24,4.13,1.38,8.14,3.3,11.63,3.48,6.85,9.93,11.55,17.41,12.74,1.59.65,3.21,1.13,4.86,1.44-.23.17-.47.35-.7.52-1.48.67-2.92,1.5-4.27,2.47-.94.49-1.85,1.04-2.72,1.65-1.17.82-2.16,1.61-3.04,2.36-2.52,1.2-4.63,2.53-6.18,3.57-1.55.64-3.05,1.45-4.46,2.41,0,0-.52.34-.59.39l-.14.08c-.93.49-2.41,1.27-4.08,2.4-1.29.49-2.61,1.03-4.1,1.68-2.06.77-3.95,1.55-5.77,2.39-1.09.26-2.16.6-3.19,1.01-.18-.3-.37-.6-.56-.89-.14-.45-.32-1.08-.48-1.66-.35-1.26-.75-2.67-1.28-4.26-.17-.83-.43-2.02-.85-3.38ZM577.12,310.52c-.52-.03-1.04-.05-1.56-.05-.33,0-.68,0-.99.02-.47.02-.94.05-1.42.09-1.07-1.24-2.21-2.72-3.38-4.37-2.97-4.29-5.33-7.35-7.44-9.63-1.76-1.9-3.68-3.62-5.74-5.15,3.82,1.45,7.97,2.21,12.33,2.21.45,0,.9,0,1.35-.02,1.81-.07,3.63-.28,5.44-.63,2.23,3.07,5.01,5.84,8.27,8.27-.34.57-.64,1.11-.9,1.6-.22.26-.5.57-.73.84l-.07.08c-1.38,1.58-3.32,3.82-5.16,6.74ZM477.8,219.46c-.21-5.86-1.09-14.07-2.67-25.12-1.45-10.12-4.64-20.69-9.49-31.46.43-1.99.6-4.02.53-6.07-.06-1.5-.25-2.98-.57-4.43,1.07-3.31,2.3-6.98,3.65-10.89,1.15-3.16,2.05-5.8,2.75-8.06.09-.28.17-.57.25-.85l.84-3.11c.89-3.28,1.03-6.74.46-10.08,1.05-.01,2.06-.02,3.01-.02,4.63,0,7.29.15,8.73.27,11.9,1.28,21.75,3.4,29.28,6.29,6.37,2.45,11.6,5.7,15.56,9.67l.22.22c4.21,4.12,6.19,8.61,6.4,14.58.37,10.14-4.06,22.5-13.18,36.73-3.04,4.52-7.69,10.14-13.82,16.71-6.29,6.74-12.11,12.31-17.31,16.57-4.75,3.73-9.65,7.23-14.64,10.47.15-3.77.16-7.58.01-11.42ZM535.32,268.11c.35,1.13.75,2.22,1.18,3.29.16.4.34.79.52,1.18,2.65,5.58,6.22,10.16,10.48,13.62-4.55-1.97-9.17-2.97-13.8-2.97-.4,0-.79,0-1.18.02-3.04.11-7.12.71-11.45,2.63-1.31-1.57-2.7-3.03-4.15-4.36,6.58-4.31,12.73-8.79,18.39-13.41ZM306.65,306.85c-1.21,1.47-2.21,3.04-3.02,4.7-1.84-.58-3.76-.94-5.7-1.05-1.86-.45-3.79-.67-5.73-.67-.28,0-.66,0-.95.02-4.74.18-9.38,1.49-15.57,4.43l-.24.12c-3.04,1.5-5.83,3.16-8.29,4.95-.29.21-.57.43-.84.64-4.34,3.46-8.39,7.87-12.03,13.1-3.15,4.52-5.71,9.27-7.64,14.13-.2,0-.4,0-.59,0-.36,0-.75,0-1.15.02-2.55.09-4.98.49-7.23,1.18-1.9.29-3.74.78-5.52,1.48-3.48.16-6.9,1.08-9.98,2.67-2.03.57-4.46,1.38-7.55,2.51-10.7,3.88-19.87,7.71-27.21,11.37-2.75,1.35-8.02,4.22-24.53,14.53-10.56,6.63-14.13,8.8-15.28,9.48-2.61,1.29-5.54,3.13-10.28,6.12-5.03,3.18-8.88,5.74-11.77,7.82-5.08,3.67-11.22,7.8-18.26,12.25-7.29,4.59-13.33,8.07-17.97,10.33-3.55,1.75-7.07,3.26-10.47,4.48-3.18,1.16-4.89,1.67-5.65,1.88-.59.09-1.15.15-1.67.19-.21-.17-.41-.34-.62-.51-.47-.78-.96-1.65-1.49-2.59-1.09-1.98-1.65-3.29-1.94-4.05-1.61-4.58-2.76-8.97-3.41-13.05-.32-2.02-.53-4.01-.62-5.92-.01-3.5.23-7.67.73-12.41.51-4.86,1.17-9.19,1.97-12.88,1.25-5.28,3.18-11.91,5.72-19.7,2.54-7.79,4.92-14.34,7.08-19.47,2.62-5.98,6.83-14.71,12.52-25.98.01-.02.03-.06.05-.1,1.61-3.23,3.15-6.12,4.58-8.6,4.8-2.86,8.49-7.43,10.74-13.34.12-.32.24-.64.34-.96.35-1.05.78-2.48,1.1-4.18.59-.58,1.15-1.2,1.67-1.84,1.81-2.22,3.22-4.81,4.12-7.57.41-.58.89-1.22,1.41-1.93,1.23-1.65,2.56-3.37,3.97-5.17-4.65,9.55-6.26,14.15-6.69,18.27-.23.66-.57,1.59-1.04,2.87l-.16.42c-1.45,4.08-2.45,7.21-3.11,9.72-2.01,3.18-3.22,6.73-3.57,10.42-.5,1.31-.9,2.67-1.18,4.06-.7,3.18-.81,6.21-.35,9.27-.06.52-.11,1.02-.14,1.52-.08.32-.17.7-.3,1.17-1.32,4.92-2.25,10.35-2.75,16.15-.56,6.42-.48,11.72.24,16.21.03.2.07.39.1.56l.77,4.18c2.03,10.97,11.52,18.97,22.63,19.14,2.52.85,5.11,1.27,7.73,1.27.28,0,.58,0,.86-.01,6.76-.24,13.1-3.37,17.39-8.58,4.3-5.22,6.15-12.08,5.08-18.84-.22-1.35-.55-2.68-.99-3.97-.03-.35-.07-.71-.11-1.08.2-1.31,1.02-5.39,4.27-14.26l.12-.33c1.97-5.66,5.38-13.5,10.14-23.28,1.79-3.68,4.04-8.19,6.73-13.49,1.05,1.44,2.16,2.62,3.25,3.59.32.59.66,1.17,1.02,1.72,1.74,6.47,4.86,11.53,9.3,15.08,6.54,10.6,17.07,11.46,20.25,11.46.3,0,.61,0,.9-.02,11.57-.45,23.22-9.91,22.66-24.97-.06-1.59-.25-3.28-.62-5.51-.38-2.26-.6-3.89-.73-5.02.15-.67.27-1.36.38-2.06.31-2.06.5-4.33.57-6.85.57-14.15,1.06-18.96,1.23-20.31.51-1.92,1.19-5.09,2.04-11.94.48-3.42,1.12-7.38,1.91-11.79-1.21,8.27-1.7,14.55-1.52,19.43.24,6.48,1.73,12.31,4.45,17.33,2.81,5.18,8.46,12,19.47,15.11,3.11.93,6.31,1.4,9.51,1.4.4,0,.81,0,1.2-.02,6.97-.25,13.7-2.76,19.45-7.24,4.17-3.13,7.08-7.37,10.68-13.87.59.89,1.22,1.79,1.9,2.69,3.93,5.22,9.19,8.97,15.33,10.96,1.47,1.69,3.15,3.15,4.98,4.49-6.24.57-12.02,3.62-16.02,8.48Z"/>
      <path class="cls-2" d="M208.86,313.15c-.42.02-1.15-1.94-2.18-5.87-.45-1.61-.85-3.28-1.19-5-.65-3.2-1.08-4.79-1.29-4.78-.14,0-.18.75-.13,2.23l.17,3.13.11,1.54c.03.92,0,1.57-.09,1.97-.09.39-.28.59-.56.6-.81.03-1.5-1.38-2.07-4.22-.6-3.77-1.18-5.64-1.74-5.62-.14,0-.28.13-.41.39-.07.07-.12.11-.16.11-.6.02-1.29-2.48-2.08-7.51-.37-2.32-.59-4.56-.67-6.72-.14-3.75-.44-5.61-.9-5.59-.21,0-.38.39-.49,1.16-.11.77-.15,1.71-.11,2.84.07,2.97,0,5.23-.23,6.78-.23,1.55-.5,2.33-.82,2.34-.46.02-.77-1.21-.93-3.68l-.24-3.71c-.19-5.3-.02-10.63.53-16,1.77-14.36,5.38-33.22,10.83-56.58,5.44-23.36,11.27-44.96,17.48-64.79,3.24-10.13,4.85-15.52,4.82-16.15l-.53-.03c-2.76.1-14.61,1.67-35.55,4.7-10.03,1.46-18.69,2.78-25.97,3.95-7.28,1.17-15.53,2.6-24.74,4.3-9.21,1.7-21.7,4.08-37.48,7.13-11.49,2.23-20.28,3.87-26.36,4.95-6.08,1.07-10.2,1.72-12.35,1.94-2.15.22-3.81.35-4.98.39-1.41.05-2.69.05-3.82-.02-8.97-.49-14.17-3.64-15.58-9.46-.17-.7-.26-1.39-.29-2.06-.12-3.25,1.52-6.41,4.91-9.47,4.11-3.65,11.48-7.75,22.11-12.28,23.03-9.94,52.22-19.66,87.58-29.17,12.4-3.39,24.25-6.37,35.56-8.95,11.3-2.57,28.49-6.17,51.57-10.81,2.95-.6,4.61-1.11,4.99-1.51.44-.55,1.46-3.2,3.05-7.97,1.89-5.38,3.06-8.61,3.52-9.68.62-1.33,2.22-5.58,4.79-12.76,4.21-11.69,6.61-17.55,7.21-17.57.04,0,.07.02.11.05.04.03.09.05.16.05.35-.01.76-.47,1.22-1.37.33-.65.55-.98.65-.98.07,0,.11.1.12.31.01.35-.05,1.1-.18,2.24-.11.89-.15,1.58-.14,2.08.02.6.14.9.35.89.07,0,.18-.04.31-.12.14-.08.26-.12.37-.12.28-.01.43.18.45.57.03.71-.32,2.05-1.02,4.02-.58,1.61-.85,2.77-.83,3.48,0,.21.05.32.12.31.35-.01,1.04-1.56,2.06-4.64.93-2.76,1.53-4.14,1.81-4.15.07,0,.11.05.11.16.03.92-.32,2.3-1.07,4.15-.75,1.85-1.07,6.08-.97,12.7.06,6.37-.05,9.86-.31,10.47-.07.14-.1.29-.09.43,0,.25.15.41.42.49.27.08.41.33.43.75.03.85-.82,3.85-2.54,9.01-.73,2.26-1.09,3.65-1.07,4.18,0,.11.15.15.43.14.99-.04,4.02-.39,9.09-1.08,17.64-2.42,36.09-3.98,55.35-4.68,22.48-.82,41.3.19,56.48,3.03,5.1,1.02,11.05,2.57,17.85,4.65,3.4,1.08,5.11,1.8,5.12,2.15,0,.11-.08.16-.26.17-.21,0-.57-.05-1.07-.17l-.32-.04s-.05.02-.05.05c0,.21,1.04.76,3.09,1.64,2.56,1.22,3.84,1.91,3.85,2.09,0,.04-.03.05-.1.06-.39.01-2.2-.54-5.42-1.66-2.94-.99-4.81-1.49-5.63-1.49-.81.03-1.22.13-1.21.31,0,.25.57.69,1.69,1.32.94.5,1.41.8,1.41.9,0,.04-.03.05-.1.06-.14,0-1.44-.3-3.91-.92-7.78-1.84-12.43-2.73-13.95-2.67-.21,0-.32.05-.31.12,0,.21,1.28.59,3.81,1.13,5.82,1.34,10.28,2.53,13.4,3.54,1.43.48,2.15.81,2.16.98,0,.04-.05.05-.16.06-.88.03-3.08-.44-6.58-1.4-5.26-1.51-9.52-2.31-12.8-2.42-3.28-.11-5.76-.13-7.46-.07-3.92.14-8.37.59-13.33,1.34-2.08.29-5.44.61-10.1.95-4.45.34-6.66.66-6.65.96s-8.3.91-24.93,1.84c-17.06.98-29.71,1.99-37.95,3.04-6.8.85-13.01,1.76-18.64,2.73-5.63.97-8.87,1.68-9.74,2.13-.45.37-.95,1.73-1.5,4.09-.72,2.72-1.77,5.74-3.17,9.09-1.68,4.34-2.75,7.48-3.21,9.41l-1.03,3.91,3.96.81c6.31,1.33,11.03,3.06,14.15,5.19,3.12,2.13,5.14,5.01,6.05,8.62.09.42.14.92.16,1.48.07,2.01-.22,4.17-.88,6.46-.54,1.72-1.04,2.59-1.5,2.6-.07,0-.11-.08-.12-.26-.01-.35.08-.82.27-1.39.47-1.54.67-3.51.58-5.91-.25-6.82-4.78-11.27-13.6-13.36-4.1-.95-7.23-1.38-9.39-1.3-.85.03-1.27.19-1.26.47.02.46.75.66,2.2.61,1.66-.06,3.85.3,6.57,1.09,2.72.79,5.16,1.7,7.32,2.73,2.16,1.04,3.25,1.89,3.28,2.56.01.32-.07.48-.25.49s-.41-.11-.7-.35c-.65-.47-1.35-.73-2.1-.77-.67.02-2.48-.42-5.41-1.34-3.58-1.07-6.69-1.56-9.34-1.46-1.2.04-1.88.25-2.05.61-.16.61-.44,1.13-.85,1.57-.57.94-2.04,5.21-4.41,12.8-9.57,30.57-17.27,58.85-23.11,84.82-1.04,4.6-1.66,7.72-1.89,9.36-.22,1.64-.83,4.83-1.83,9.57-1.06,5.77-1.9,10.86-2.52,15.27-.6,4.87-1.14,8.04-1.62,9.51-.66,2.4-1.27,10.72-1.85,24.96-.05,1.66-.15,3.07-.32,4.21-.17,1.14-.36,1.71-.57,1.72s-.29.86-.22,2.56c.09,2.54.5,5.94,1.22,10.2.18,1.09.28,1.9.3,2.43.02.49-.04.75-.18.75ZM49.03,134.86c.18,0,.38-.08.6-.23.22-.15.39-.31.49-.47.1-.16.15-.28.15-.35,0-.11-.08-.16-.22-.15s-.33.07-.58.18c-.77.31-1.15.59-1.14.84,0,.14.24.2.7.19ZM53.5,132.42c.21,0,.43-.09.65-.24.22-.15.38-.31.46-.47.08-.16.12-.28.12-.35,0-.11-.08-.16-.22-.15s-.33.05-.58.13c-.77.35-1.14.63-1.14.84,0,.18.24.26.7.24ZM56.15,130.62c.25,0,3.26-1.23,9.05-3.68l5.12-2.15c2.09-.89,3.19-1.39,3.29-1.5s.15-.2.15-.27-.02-.11-.06-.13c-.04-.02-.07-.02-.11-.02-.6.02-3.22,1-7.85,2.94-6.48,2.75-9.71,4.34-9.7,4.76,0,.04.04.05.11.05ZM75.8,138.29c.14,0,3.99-.73,11.55-2.17,5.34-.94,10.81-2.04,16.39-3.31,3.65-.77,7.45-1.55,11.38-2.33,2.46-.41,6.61-1.16,12.44-2.26,1.76-.28,6.82-1.22,15.18-2.84,13.84-2.66,28.35-5.05,43.5-7.17,15.16-2.11,26.87-3.35,35.14-3.73l10.6-.44c1.1-2.87,1.95-5.22,2.56-7.05,2-6.16,3.24-10.1,3.71-11.81.28-1.14.41-1.94.39-2.4-.02-.49-.2-.74-.56-.72-1.38.05-8.07,1.36-20.08,3.92-15.45,3.33-30.19,6.8-44.21,10.43-10.24,2.64-19.21,5.11-26.91,7.41l-23.42,6.96c-10.08,3.06-21.44,6.93-34.08,11.6-9.25,3.45-13.87,5.41-13.85,5.87,0,.04.09.05.27.04ZM77.47,121.56c.74-.03,2.54-.59,5.41-1.68,1.29-.47,1.98-.75,2.07-.85s.13-.17.12-.24c0-.14-.08-.21-.22-.2-.6.02-2.04.46-4.3,1.33-2.13.93-3.19,1.46-3.18,1.6l.11.05ZM116.65,108.66c.46-.02.89-.09,1.29-.23.4-.14.66-.32.78-.53.12-.22.17-.38.17-.48,0-.14-.11-.21-.33-.2-.35.01-1.05.27-2.09.77-.7.27-1.04.48-1.04.62,0,.07.25.1.75.08l.48-.02ZM125.53,106.05c.71-.03,1.06-.13,1.05-.3,0-.21-.24-.33-.7-.35-.28.01-.55.07-.82.19-.26.12-.39.21-.39.28,0,.11.29.17.86.18ZM130.72,104.32c.64-.02,2.65-.49,6.05-1.39,4.73-1.27,7.09-2.12,7.07-2.54,0-.07-.15-.1-.43-.09-.39.01-.99.1-1.8.25-.81.15-1.86.42-3.16.81-1.3.38-2.58.8-3.86,1.26-1.28.45-2.25.82-2.93,1.09-.68.27-1.02.46-1.01.57,0,.04.02.05.05.05ZM147.86,99.92c.21,0,.42-.09.63-.24.21-.15.36-.31.46-.47s.15-.28.15-.35c0-.11-.08-.16-.22-.15s-.33.05-.58.13c-.77.35-1.14.64-1.14.89,0,.14.24.2.7.19ZM206.86,129.67c.56-.02,1.27-.1,2.11-.24,2.25-.37,5.88-.73,10.9-1.09,5.51-.38,8.24-.99,8.21-1.84-.01-.28-.63-.4-1.87-.36-1.73.06-4.31.34-7.72.81-8.52,1.2-12.77,2.04-12.75,2.54,0,.14.38.2,1.12.17ZM210.35,193.08c.11,0,.43-.85.97-2.53,1.23-4.04,1.84-6.35,1.82-6.91,0-.11-.02-.16-.06-.16-.18,0-.57.87-1.18,2.59-1.15,3.33-1.71,5.57-1.67,6.7,0,.21.05.32.12.31ZM213.7,181.59c.11,0,.31-.26.61-.77.46-.83.68-1.62.66-2.36-.02-.49-.06-.74-.13-.74-.11,0-.31.26-.61.77-.46.87-.68,1.76-.65,2.68.01.28.05.42.12.42ZM222.01,154.8c.18,0,.46-.49.85-1.46.65-1.44.97-2.58.94-3.43-.04-.17-.1-.26-.17-.26-.18,0-.48.48-.9,1.41-.61,1.61-.91,2.78-.88,3.48.04.18.1.26.17.26ZM253.12,115.87c-.81.03-1.22,0-1.22-.11,0-.07.13-.16.39-.28.26-.12.53-.18.82-.19.46-.02.69.08.7.29,0,.18-.22.27-.68.29ZM258.96,117.19c-.39.01-1.16-.19-2.3-.61-.57-.23-.86-.39-.87-.5s.15-.16.47-.18.7.04,1.15.14c.45.11.85.28,1.21.51.36.23.55.41.55.51,0,.07-.07.11-.21.11Z"/>
      <path class="cls-2" d="M269.47,277.97c-1.1.04-2.2-.11-3.31-.46-2.64-.72-4.46-1.99-5.45-3.81-.99-1.82-1.53-4.16-1.64-7.03-.17-4.59.67-12.18,2.51-22.76,2.05-11.65,5.31-27.62,9.79-47.92,4.48-20.3,8.67-38.04,12.57-53.22,3.79-14.44,7.99-29.43,12.6-44.97,4.61-15.54,8.73-28.74,12.35-39.57,3.62-10.84,5.83-16.38,6.64-16.62h.05c.18,0,.42-.22.72-.64.3-.42.58-1,.84-1.76.62-1.47,1.07-2.22,1.35-2.23.11,0,.18.12.23.36.01.39-.17,1.14-.55,2.25-.22.65-.46,1.41-.71,2.31-.25.89-.45,1.72-.6,2.49-.15.77-.22,1.33-.2,1.68s.13.53.34.52c.11,0,.25-.04.42-.12.35-.15.59-.23.73-.24.18.03.27.13.28.31.02.57-.54,2.6-1.69,6.11-.97,3.36-1.45,5.34-1.43,5.94l.06.21c.32-.01,1.3-2.67,2.95-7.96,1.66-5.01,2.61-7.53,2.86-7.54.03,0,.06.07.06.21.01.35-.09.98-.3,1.87-.24,1.14-.62,2.43-1.13,3.86-2.8,8.45-4.3,17.43-4.48,26.92-.03,3.08-.28,5.8-.76,8.15-.42,2-.7,4.47-.84,7.41-.05,2.44-.52,5.5-1.42,9.18-.8,3.36-3.19,12.08-7.16,26.17-4.01,14.34-6.52,23.86-7.55,28.57-1.18,5.35-2.17,9.46-2.95,12.32-1.41,4.94-2.63,9.6-3.65,13.99-1.02,4.39-2.53,11.29-4.52,20.71-2.74,13.12-4.42,20.92-5.04,23.38-.31,1.07-.46,1.93-.44,2.56,0,.14.03.25.07.32.32-.08,3.3-5.5,8.96-16.25,4.96-9.45,9.68-17.95,14.17-25.49,4.48-7.54,7.94-12.83,10.38-15.85,1.7-2.01,3.63-3.69,5.81-5.04,2.18-1.35,4.06-2.06,5.66-2.12,1.2-.04,2.47.62,3.81,1.98,1.34,1.37,2.42,3.08,3.24,5.14.41,1.47.72,5.12.93,10.95.4,10.96.39,19.36-.03,25.21-.25,2.77-.34,9.97-.27,21.61.02,7.25.08,12.4.19,15.44.06,1.63.11,2.53.15,2.7h.05c.35-.01.86-.55,1.53-1.6.5-.8,1.85-2.63,4.04-5.51,1.93-2.41,4.98-7.05,9.15-13.92,3.87-6.3,6.08-9.46,6.61-9.48.03,0,.06.02.08.05.02.03.05.05.08.05.42-.02,1.54-1.79,3.33-5.32,1.8-3.53,3.27-6.24,4.4-8.12,1.13-1.88,1.81-2.83,2.02-2.83.03,0,.05.03.06.1-.1,1.14-2.12,5.88-6.06,14.24-1.61,3.42-3.09,6.4-4.45,8.92-2.45,4.73-3.67,7.18-3.66,7.35,0,.04.02.05.06.05.42-.02,3.03-4.22,7.82-12.6,2.49-4.55,3.8-6.83,3.94-6.83.11,0,.17.4.2,1.21.06,1.66-1.11,4.92-3.52,9.79-1.94,4-2.9,6.41-2.87,7.22,0,.18.1.26.27.26.35-.01.69-.29,1-.83s.51-.81.58-.82c.04,0,.05.03.06.1.01.39-.49,1.7-1.5,3.93-1.7,3.85-4.09,8.38-7.17,13.59-3.08,5.21-5.87,9.43-8.37,12.67-2.3,2.88-3.45,4.43-3.44,4.64h.05c.11,0,.81-.69,2.1-2.04,2.28-2.38,5.43-6.29,9.44-11.71,4.78-6.65,7.31-9.98,7.6-9.99.04,0,.05.03.06.1.01.28-.43,1.31-1.32,3.07-3.3,6.63-7.33,12.76-12.09,18.38-4.77,5.62-8.83,9.05-12.18,10.27-1.19.29-2.34.46-3.43.5-3.29.12-5.79-.96-7.5-3.23-1.49-1.96-2.43-3.68-2.82-5.15-.39-1.47-.71-5.49-.95-12.07-.49-13.5-.61-25.81-.35-36.93.22-7.58.28-12.54.2-14.87-.03-.81-.08-1.27-.16-1.37-.28.01-1.7,2.31-4.26,6.9-2.56,4.59-5.6,10.26-9.12,17-3.52,6.75-6.88,13.35-10.08,19.8-5.89,12.04-10.14,20.46-12.74,25.28-2.6,4.82-4.32,7.49-5.15,8.02-1.96,1.59-4.02,2.43-6.17,2.51ZM269.22,275.64c2.08-.08,4.09-1.25,6.03-3.51.85-1.02,1.26-1.71,1.25-2.06,0-.03-.02-.05-.05-.05-.18,0-.78.58-1.8,1.71-1.73,2.05-3.64,3.11-5.72,3.18-.88.03-1.81-.13-2.78-.48-2.23-1.01-3.53-4.17-3.9-9.46l-.28-4.82c-.21,1.07-.41,2.14-.6,3.21-.19,1.07-.27,2.08-.23,3.03.07,1.8.5,3.41,1.29,4.84,1.21,2.19,2.49,3.47,3.83,3.87,1.34.39,2.33.58,2.97.55ZM262.34,257.31c.21,0,.33-.24.35-.7-.01-.28-.07-.55-.19-.82-.12-.26-.21-.39-.28-.39-.11,0-.17.29-.18.86.03.71.13,1.06.3,1.05ZM278.12,266.34c.07,0,.39-.37.97-1.1.98-1.31,1.46-2.21,1.44-2.71,0-.14-.04-.21-.11-.21-.35.01-1.06,1.12-2.11,3.32-.16.36-.24.58-.24.65,0,.04.02.05.05.05ZM281.57,260.54c.21-.11.44-.51.7-1.19.06-.25.09-.45.08-.59s-.06-.21-.17-.21c-.07,0-.18.05-.34.15-.16.09-.3.26-.43.49-.13.24-.2.46-.19.67.02.46.11.69.29.68h.05ZM295.08,233.93c.14,0,.54-.59,1.21-1.74,1.47-2.46,2.19-3.87,2.18-4.22,0-.03-.02-.05-.06-.05-.21,0-.72.7-1.52,2.07-1.23,2.1-1.84,3.39-1.82,3.89v.05ZM299.95,224.72c.32-.01,1.62-2.16,3.9-6.46,2.58-4.87,4.06-7.6,4.43-8.18.5-.83.75-1.37.74-1.62,0-.07-.04-.1-.11-.1-.18,0-1.75,2.59-4.71,7.74-2.96,5.15-4.43,7.92-4.42,8.31,0,.21.06.32.17.31ZM316.33,72.04c-.32.01-.48-.11-.49-.35,0-.11.05-.26.17-.46.12-.2.24-.37.38-.52.14-.15.26-.22.36-.23.21,0,.33.24.35.73,0,.21-.07.4-.22.57-.15.16-.34.25-.55.26ZM331.76,268.68c.25,0,.61-.17,1.1-.49.48-.32,1-.74,1.55-1.25.55-.52,1.11-1.05,1.69-1.6-3.25,2.1-4.87,3.19-4.87,3.26.07.07.25.1.53.09ZM351.21,224.38c.14,0,.9-1.01,2.28-3,1.3-2.17,1.94-3.5,1.92-4,0-.11-.04-.16-.11-.16-.11,0-.29.18-.57.53-.27.35-.61.87-1.03,1.58-.42.71-.83,1.45-1.25,2.22-.41.78-.73,1.41-.94,1.89s-.32.78-.31.89v.05Z"/>
      <path class="cls-2" d="M367.08,280.87c-1.27.05-2.46-.07-3.57-.35-5.47-1.46-8.91-4.26-10.34-8.41-1.43-4.14-2.21-8.1-2.35-11.88-.15-4.1.15-8.83.91-14.21,1.69-12.87,5.13-27.07,10.33-42.58,6.8-20.24,14.35-34.85,22.65-43.83,4.15-4.65,8.61-7.06,13.38-7.23l.85-.03c5.05-.19,9.15,1.93,12.28,6.34,2.09,2.97,3.21,6.45,3.35,10.44.24,6.5-1.84,13.64-6.22,21.41-3.49,6.22-8.23,12.14-14.21,17.77-1.51,1.4-3.54,2.93-6.1,4.58s-5.01,3.09-7.35,4.3c-2.34,1.22-3.96,1.84-4.84,1.88-.88.17-1.9,2.27-3.06,6.3-1.16,4.02-2.25,8.76-3.25,14.21-1.78,9.37-2.6,16.04-2.45,20,.05,1.45.25,2.42.58,2.9.66.68,1.31,1.01,1.95.99.6-.02,1.98-.99,4.14-2.91,5.38-4.8,9.52-9.2,12.42-13.19,3.8-5.38,7.08-9.67,9.83-12.89,1.02-1.17,2.45-3.26,4.28-6.26,1.37-2.21,3.86-6.1,7.48-11.69l3.21-5.05c2.84-4.49,4.39-6.74,4.64-6.75,0,.18-.34.93-1.03,2.27-.93,1.66-1.39,2.62-1.38,2.86l.05.05c.35-.01,1.62-1.79,3.79-5.34,2.74-4.52,4.24-6.83,4.52-6.91.28-.08.44-.12.47-.12.11,0,.16.07.17.21.03.88-1.75,4.88-5.35,11.98-.86,1.66-1.41,2.65-1.64,2.98-.3.51-.45.87-.44,1.08,0,.18.06.26.17.26s.45-.4,1.02-1.18c.57-.78,1.24-1.82,2.01-3.13.77-1.3,1.5-2.48,2.21-3.53.71-1.05,1.19-1.69,1.44-1.91s.46-.34.6-.34c.21,0,.33.18.34.57.04,1.1-.54,3.01-1.75,5.74-.72,1.51-1.07,2.61-1.05,3.28.01.35.13.57.34.65.22.08.33.28.34.6.05,1.34-1.37,5.23-4.24,11.67-.79,1.73-1.38,2.97-1.77,3.73-.76,1.44-1.14,2.29-1.13,2.54,0,.04.02.05.05.05.32-.01,1.43-1.52,3.34-4.53,2.61-4.06,4.18-6.1,4.71-6.12.11,0,.16.1.17.31.05,1.34-1.67,5.1-5.16,11.28-4.16,7.09-9.21,14.34-15.15,21.76-5.94,7.42-11.22,13.11-15.86,17.06-6.53,5.33-12.64,8.11-18.33,8.32ZM352.89,251.29c.07,0,.42-1.64,1.04-4.92.36-1.82.55-2.92.57-3.31,0-.11-.04-.16-.11-.16s-.2.18-.38.52c-.18.34-.36.99-.54,1.93-.18.94-.32,1.97-.42,3.07-.12,1.46-.18,2.36-.17,2.71v.16ZM354.52,240.72c.14,0,.33-.29.55-.87.32-.9.47-1.72.44-2.46-.01-.35-.07-.55-.18-.58-.18,0-.38.3-.6.87-.32.9-.47,1.72-.44,2.46.01.35.09.55.23.58ZM361.53,214.82c.25,0,.72-1.18,1.41-3.5.51-1.58.75-2.66.73-3.26,0-.11-.02-.16-.06-.16-.25,0-.7.9-1.36,2.68-.66,1.78-.98,2.93-.96,3.46s.1.79.24.79ZM376.2,216.57c.07,0,.22-.11.44-.33s.49-.52.79-.9.45-.64.45-.79c0-.21-.3-.31-.86-.29-.32.01-.6.14-.84.38-.24.24-.35.52-.34.83.03.74.15,1.11.36,1.1ZM376.7,213.05c.49-.02,1.42-.41,2.77-1.16,1.87-1.06,3.01-1.86,3.42-2.41v-.11s-.04-.05-.11-.05c-.5.02-1.45.41-2.88,1.17-.97.5-1.79.99-2.44,1.47-.66.48-.98.81-.97.99,0,.07.07.1.22.1ZM377.56,210.47c.35-.01.98-.3,1.88-.86.03,0,.05-.02.05-.05.73-.38,1.08-.84,1.06-1.37,0-.11-.05-.24-.15-.39-.09-.16-.14-.27-.15-.34s.01-.11.05-.11c.07,0,.16.03.27.1.11.07.25.1.43.09.49-.02.96-.21,1.41-.58,1.17-1.03,2.36-2.71,3.59-5.01.5-.94.74-1.6.72-1.99-.02-.64.56-2.21,1.74-4.73,1.18-2.52,1.76-4.06,1.74-4.63,0-.25.3-1.02.92-2.32.62-1.3,1.42-2.76,2.39-4.39,2.26-4.01,3.35-6.97,3.28-8.88-.03-.92-.36-1.49-.97-1.72h-.21c-.92.04-2.27,1.33-4.05,3.87-1.88,2.79-3.9,6.45-6.07,10.97-2.17,4.52-4.14,9.33-5.89,14.42l-.1.27c-1.51,4.2-2.25,6.63-2.23,7.3,0,.25.1.37.28.36Z"/>
      <path class="cls-2" d="M402.73,296.04c-8.59.31-12.89.23-12.91-.24s-.4-.7-1.14-.67l-.69.03c-.81.03-1.61-.1-2.4-.39-.4-.16-.73-.24-1.02-.23-.35.01-.59.17-.7.48-.11.31-.26.55-.45.73-.19.18-.39.28-.6.29-.28.01-.43-.11-.44-.36,0-.11.03-.21.09-.32.07-.11.1-.2.1-.27-.02-.42-.48-.7-1.38-.83-.91-.13-3.67-.55-8.3-1.26-5.34-.87-10.68-2.14-16.01-3.82-5.34-1.68-9.84-3.53-13.53-5.56-5.24-2.92-7.87-4.6-7.88-5.02l.43.09c.43.16,1.13.51,2.11,1.04,13.69,7.57,30.92,11.77,51.69,12.6,2.44.05,4.21.06,5.31.02.85-.03,1.27-.08,1.27-.15-.01-.35-2.91-.69-8.69-1.01-4.72-.29-9.79-.88-15.22-1.78-5.43-.9-9.4-1.8-11.91-2.7l-2.75-1.07c3.82.07,6.64.2,8.45.38,1.39.16,2.49.33,3.31.52,2.96.63,6.52,1.1,10.69,1.39,4.17.29,8.09.37,11.77.23,2.97-.11,4.67-.43,5.11-.96.44-.53,3.51-1.18,9.22-1.96,15.5-1.88,29.89-5.25,43.16-10.13,3.39-1.26,5.16-1.99,5.33-2.21l.2-.27c0-.07-.07-.1-.22-.1-.49.02-1.91.42-4.25,1.22-13.15,4.34-24.47,6.68-33.98,7.03-.85.03-1.27.01-1.28-.06,0-.21,4.29-1.29,12.89-3.23,28.45-6.85,54.76-19.79,78.94-38.83,6.08-4.96,12.67-11.25,19.77-18.85,7.1-7.6,12.53-14.22,16.29-19.84,11.89-18.48,17.55-35.29,17-50.41-.44-11.98-4.92-22.13-13.43-30.45-6.32-6.35-14.24-11.35-23.75-15-9.51-3.65-21.3-6.23-35.37-7.73-5.22-.48-13.61-.51-25.16-.09-15.41.56-27.35,1.48-35.84,2.75-7.6,1.2-15.72,2.7-24.36,4.5s-16.25,3.57-22.84,5.3c-7.92,2.17-15.78,4.62-23.59,7.37-7.81,2.75-14.08,5.22-18.81,7.43-4.73,2.21-7.08,3.74-7.05,4.58l.06.21c.36.2,2.95.34,7.77.43,4.82.09,10.99.1,18.53.04,13.97-.23,25.02.05,33.15.83,8.13.78,14.8,2.4,20,4.87,5.2,2.46,10.44,6.13,15.72,11,4.65,4.15,7.08,6.22,7.29,6.21.13-.22,1.64-4.11,4.51-11.68,3-7.82,5.15-13.49,6.44-17.01.68-1.72,1.23-2.59,1.66-2.61l.16.05c.49-.02,1.36-1.58,2.59-4.69,1.23-3.11,1.99-4.66,2.27-4.67l.06.1c.02.6-.79,3.14-2.43,7.63-2.33,6-3.46,9.95-3.39,11.86,0,.04.02.05.05.05.14,0,.43-.33.87-.99.34-.44.6-.87.8-1.3.2-.43.29-.77.28-1.02s.06-.37.2-.38c.07,0,.14.03.22.1.04,1.17-1.19,5.26-3.69,12.29-3.23,9.46-4.83,14.47-4.81,15.04,0,.21.08.32.22.31.21,0,.96-1.87,2.24-5.6,2.26-6.77,5.08-14.52,8.44-23.24.68-1.76,1.12-2.64,1.34-2.65h.05s-.84,3.11-.84,3.11c-.6,1.93-1.42,4.32-2.45,7.15-2.53,7.28-4.57,13.53-6.11,18.75l-2.54,8.8,2.33,4.32c5.94,11.32,9.63,22.04,11.08,32.16,1.45,10.12,2.27,17.67,2.45,22.66.34,9.3-.31,18.15-1.95,26.56-1.42,6.63-3.6,12.28-6.55,16.93-2.94,4.66-5.84,7.71-8.69,9.16-2.85,1.45-5.25,2.21-7.19,2.28-1.84.07-3.69-.29-5.56-1.07-8.3-3.45-12.75-13.32-13.35-29.61-.49-13.5,3.19-33.7,11.05-60.6l3.73-12.61-2.7-4.15c-3.15-4.73-7.14-8.91-11.98-12.54-4.84-3.63-9.71-6.11-14.61-7.45-2.79-.75-5.67-1.3-8.66-1.65-2.98-.35-7.01-.57-12.07-.65-5.06-.08-12.09-.08-21.07,0-7.57.07-14.16.07-19.77,0-5.61-.06-8.95-.18-10.02-.35l-5.4-.97c-1.57-.37-3.35-1.17-5.34-2.41-1.99-1.24-3.56-2.54-4.71-3.91-.82-1.17-1.53-3.02-2.11-5.55-.37-1.44-.57-2.49-.59-3.16-.02-.64.09-.96.34-.97s.85-.97,1.81-2.88c1.98-3.79,6.83-7.88,14.55-12.26,7.71-4.39,17.31-8.63,28.78-12.73,11.47-4.1,23.85-7.63,37.11-10.6,13.83-3.05,25.79-5.27,35.88-6.65,10.09-1.38,21.21-2.29,33.37-2.74,9.97-.37,18.15-.4,24.55-.1s13.03,1.03,19.91,2.19c12.82,2.15,24.4,5.8,34.75,10.96,10.35,5.16,18.41,11.33,24.19,18.52,3.38,4.26,5.46,6.91,6.24,7.95.82,1.17,1.24,1.9,1.25,2.18.28.91.88,2.29,1.8,4.13,3.1,6.43,4.84,14.69,5.21,24.76.38,10.36-1.35,20.72-5.18,31.08-3.86,10.55-10.36,22.36-19.51,35.43-1.41,2.03-3.78,4.93-7.11,8.7-7.61,8.7-14.15,15.54-19.63,20.52-14.88,13.07-33.8,24.86-56.78,35.36-8.32,3.81-15.89,6.69-22.72,8.64-11.8,3.37-26.12,5.36-42.94,5.98ZM342.03,118.64c.32-.01.76-.14,1.34-.39.58-.25,1.16-.56,1.74-.94.59-.37,1.19-.77,1.81-1.18-3.78,1.2-5.66,2.01-5.64,2.44,0,.07.14.1.43.09h.32ZM350.61,115.19c.71-.03,4.17-1.14,10.39-3.35,6.57-2.26,10-3.39,10.28-3.4.14,0,.21-.04.21-.11,0-.21-.14-.31-.38-.3-.81.03-3.88.89-9.2,2.57-7.66,2.4-11.48,3.91-11.46,4.51,0,.07.06.1.16.1ZM384.17,105.31c.18,0,.39-.07.66-.18s.5-.25.7-.4c.21-.15.31-.26.31-.33,0-.21-.38-.3-1.13-.28s-1.16.29-1.14.78c.01.28.21.42.6.4ZM389.16,103.9c.57-.02,1.18-.13,1.85-.33l3.57-1.19-2.23.03c-.99.04-1.9.28-2.73.74-.49.3-.72.52-.72.66,0,.07.09.1.27.1ZM401.15,292.17c.74-.03,1.11-.11,1.11-.25,0-.21-.38-.3-1.13-.28s-1.11.15-1.1.36c0,.14.38.2,1.12.17ZM430.46,256.01c1.52-.06,3.17-2.93,4.94-8.62.6-2,1.09-3.97,1.48-5.89,1.04-5.31,1.42-11.89,1.14-19.73-.34-9.15-1.5-18.24-3.49-27.26-.29-1.05-.59-1.57-.91-1.56-.28.01-.7,1.25-1.24,3.71-.91,4.03-1.67,8.47-2.27,13.3-.19,1.71-.27,2.84-.25,3.41.01.28.03.47.07.55.04.09.06.25.07.5.04,1.06-.28,3.53-.95,7.41-.54,2.64-.88,5.39-1.02,8.27-.14,2.87-.15,6.59-.02,11.15.29,8.02.62,12.54.97,13.55.42.83.91,1.24,1.48,1.22ZM441.62,159.26s-.05-.03-.06-.1c0-.14.06-.41.21-.8.14-.39.28-.66.42-.81.14-.15.24-.22.31-.22.18,0,.27.11.28.36.01.35-.15.7-.49,1.05-.34.35-.57.52-.67.53ZM444.07,124.72c.28-.01.65-.59,1.1-1.74.13-.36.19-.64.18-.86,0-.14-.04-.21-.11-.21-.11,0-.31.22-.61.66-.47.76-.69,1.41-.67,1.94,0,.14.04.21.11.21ZM446.63,94.79c1.1-.04,1.64-.13,1.64-.27,0-.18-.56-.24-1.65-.2s-1.64.15-1.63.33c0,.14.56.19,1.65.15ZM454.27,94.46c2.05-.08,3.07-.18,3.07-.32,0-.03-.2-.06-.59-.08-.75-.08-1.58-.1-2.5-.07s-1.71.12-2.49.25c-.35.05-.53.09-.53.13,0,.14,1.01.18,3.03.1ZM485.2,94.12l-3.84-.44c-2.35-.27-5.3-.34-8.87-.21l-7.9.34c6.06.24,9.9.37,11.53.4,1.63.03,4.65,0,9.07-.09ZM493.84,95.35c.42-.02.64-.04.63-.08,0-.11-.54-.26-1.61-.47-1.5-.33-3.15-.47-4.95-.4l-2.7.15c4.41.58,7.29.85,8.63.8ZM497.9,96.05c.74-.03,1.11-.11,1.11-.25,0-.25-.38-.36-1.13-.33s-1.11.16-1.1.41c0,.14.38.2,1.12.17ZM505.12,97.37c.74-.03,1.11-.13,1.1-.31,0-.25-.24-.36-.7-.35-.28.01-.56.07-.82.19-.26.12-.39.21-.39.28,0,.11.27.17.8.18Z"/>
      <path class="cls-2" d="M604.98,284.65c-2.19.08-4.21-.41-6.05-1.48-1.89-1.24-3.35-2.6-4.4-4.09-1.2-1.69-2.12-4.17-2.77-7.44-.65-3.27-1.04-6.58-1.16-9.94l-.11-5.99c-.08-2.19-.19-3.32-.34-3.39-.25,0-.84.86-1.76,2.56-1.1,1.92-2.81,4.19-5.14,6.82s-4.34,4.55-6.03,5.74c-2.73,1.76-5.33,2.69-7.81,2.78-4.98.18-8.74-2.39-11.27-7.71-.97-2.37-1.52-5.27-1.64-8.7-.14-3.82.25-8.27,1.16-13.37,1.73-9.69,4.73-19.58,9-29.68,5.37-12.76,11.55-22.26,18.54-28.49,3.5-3.1,7.36-4.73,11.61-4.88,3.18-.12,6.41.67,9.69,2.35,3.03,1.55,4.56,2.68,4.58,3.39,0,.18-.1.27-.31.28-.32.01-.82-.2-1.51-.63l-.27-.15-.05.05c0,.11.56.72,1.66,1.85,1.54,1.57,2.32,2.55,2.34,2.94,0,.11-.05.16-.15.16-.35.01-1.32-.71-2.89-2.18-1.83-1.7-3.05-2.54-3.65-2.52-.64.02-.95.19-.94.51.01.39.59,1.02,1.71,1.9l1.81,1.47-2.34-1.45c-3.18-1.83-6.08-2.7-8.69-2.6-.74.03-1.4.18-1.97.44-.57.27-.86.46-.85.56,0,.18.84.25,2.5.23,3.79,0,6.69,1.1,8.72,3.29.33.34.5.57.5.67l-.05.05c-.14,0-.7-.33-1.68-1-2.18-1.44-4.25-2.13-6.23-2.05-.92.03-1.86.24-2.82.61-.96.37-1.93,1.04-2.93,2.02-.99.97-1.75,1.92-2.28,2.84-.53.92-.79,1.65-.77,2.18l.07.42c.12.28.18.51.18.68.01.35-.1.54-.35.54-.46.02-1.12,1.74-1.99,5.17-.34,1.36-.57,2.6-.69,3.74-.12,1.14-1.34,4.26-3.66,9.37-2.61,6.01-4.95,12.55-7.03,19.63-.91,3.08-1.35,5.07-1.32,5.99.05,1.45.36,2.16.93,2.14,1.34-.05,3.31-2.95,5.89-8.71,1.57-3.38,4.22-9.97,7.93-19.77,1.55-4.06,3-7.6,4.36-10.64,1.36-3.04,2.29-4.87,2.8-5.49.98-1.17,2.5-1.79,4.55-1.86l.9-.03c3.22-.12,5.31,1.08,6.29,3.59.51,1.33.81,3.33.91,6.02.09,2.54,0,5.72-.29,9.51-1.64,23.7-2.34,38.94-2.09,45.73.08,2.26.27,3.58.57,3.96h.11c.57-.02,1.68-1.11,3.33-3.26,1.76-2.26,3.6-4.96,5.54-8.11,1.94-3.15,3.43-5.96,4.47-8.44.94-2.26,2.22-4.72,3.82-7.36,1.6-2.64,3.26-6.1,4.98-10.37,1.69-4.06,2.68-6.1,2.96-6.11l.06.16c.02.46-.27,1.3-.86,2.53-.72,1.65-1.07,2.64-1.06,2.96,0,.11.04.16.11.16.28-.01,1.03-1.36,2.24-4.06.59-1.33,1.1-2.68,1.55-4.04,1.25-3.44,2.28-5.78,3.09-7.01.34-.51.56-.76.66-.77s.16.08.17.26c.02.64-.77,3.66-2.38,9.06-1.58,5.3-2.62,8.57-3.14,9.83-.27.47-.39.86-.38,1.18,0,.11.06.16.16.15.28-.01,1.38-2.28,3.31-6.81,1.59-3.81,2.62-5.72,3.08-5.74.28-.01.44.39.47,1.2.05,1.34-.31,3.2-1.07,5.56-.7,2.18-1.04,3.58-1.01,4.18.01.28.12.42.33.41.07,0,.17-.03.32-.09.14-.06.26-.09.37-.09.25,0,.38.16.39.52.03.74-.49,2.97-1.56,6.69-1.67,5.72-2.99,9.61-3.98,11.66-.43.94-.63,1.58-.62,1.93,0,.11.04.16.11.16l.16-.06c.24-.19.64-.75,1.19-1.69.55-.94,1.12-2.04,1.71-3.3.59-1.26,1.22-2.53,1.9-3.81.68-1.28,1.25-2.29,1.72-3.04.47-.74.95-1.49,1.46-2.26l-.39,2.3c-.26,1.5-1.1,3.9-2.5,7.2-1.4,3.31-3.01,6.77-4.82,10.4-1.81,3.62-3.49,6.67-5.03,9.13-6.22,9.82-11.66,16.02-16.31,18.59-2.71,1.41-5.23,2.16-7.56,2.24Z"/>
      <path class="cls-2" d="M635.84,288.09c-1.77.06-3.59-.43-5.47-1.5-2.03-1.2-3.46-2.78-4.29-4.75-.83-1.97-1.32-4.79-1.45-8.47l-.04-1.22c-.29-7.99.9-20.01,3.56-36.07,2.76-16.56,7.65-40.82,14.69-72.78,5.53-24.87,11.81-49.53,18.84-74,7.03-24.46,12.47-40.67,16.32-48.64,1.19-2.31,2.45-4,3.8-5.08,1.61-1.33,3.55-2.04,5.81-2.12,2.44-.09,4.57.75,6.41,2.53,2.02,2.01,3.09,4.65,3.21,7.9.07,1.84-.13,4.09-.6,6.76-.35,2.07-.68,3.1-1,3.12-.11,0-.22-.18-.34-.54-.12-.37-.25-.55-.39-.54-.28.01-.64.99-1.06,2.93-.43,1.94-.8,2.92-1.11,2.93-.11,0-.17-.22-.18-.68-.03-.71.12-1.63.43-2.78.51-1.65.73-3.37.66-5.17-.05-1.45-.15-2.17-.29-2.17s-.43.46-.85,1.36c-.36.76-.6,1.14-.7,1.14-.07,0-.11-.14-.12-.42-.02-.42.03-1.22.12-2.39.07-.96.09-1.84.06-2.66-.11-2.93-.94-4.78-2.49-5.54-.43-.2-.88-.29-1.34-.27-.64.02-1.3.26-1.99.71-1.18.75-2.18,1.99-3,3.72-.59,1.33-.88,2.16-.86,2.47,0,.11.04.16.11.16.32-.01.99-.85,2.03-2.52,1.44-2.25,2.72-3.39,3.86-3.43.39-.01.76.1,1.13.33.91.64,1.4,1.93,1.47,3.87.06,1.73-.21,3.97-.82,6.72-.18.86-.31,1.29-.38,1.29-.04,0-.06-.23-.08-.69-.03-.88-.02-2.41.04-4.57l.02-2.28c-.09-2.54-.56-3.8-1.41-3.77-.46.02-1.01.41-1.66,1.18-1.05,1.35-1.95,3.41-2.72,6.18-.77,2.77-1.13,5.24-1.08,7.39l.03.74c.05,1.34-.03,2.02-.24,2.03-.04,0-.09-.04-.16-.13-.07-.09-.15-.13-.22-.12-.14,0-.2.36-.17,1.07.04,1.03.16,1.81.38,2.35.21.54.42.82.61.83.19.01.29.05.3.12,0,.18-.27.51-.81.99-.69.59-1.02,1.1-1.01,1.52,0,.07.02.14.06.21.04.07.06.23.07.48.04,1.13-.12,3.12-.47,5.96-.53,3.95-.94,6.21-1.24,6.79-.07.14-.1.29-.09.43,0,.25.14.4.39.46.25.06.38.29.4.68.02.67-.26,2.2-.84,4.6l-3.79,13.94c-2.66,9.51-5.34,19.59-8.05,30.23-2.71,10.65-4.48,18.05-5.32,22.22-.47,2.49-1.12,5.07-1.95,7.72-1.3,4.26-4.05,16.5-8.26,36.72-1.74,8.42-3.13,15.46-4.16,21.12l-3.19,17.26c-.71,3.74-1.32,7.52-1.82,11.32-.19,1.53-.28,2.54-.26,3.04,0,.14.02.21.06.21.21,0,.86-1.18,1.94-3.52,3.97-8.46,9.81-19.98,17.53-34.56,3.31-6.28,5.75-10.74,7.31-13.38.4-.72.59-1.3.57-1.72,0-.18-.06-.32-.15-.45-.09-.12-.14-.22-.14-.29,0-.14.11-.22.34-.22s.96-.83,2.19-2.47,2.63-3.65,4.21-6.05c3.92-6.02,7.26-10.6,10.03-13.74,2.77-3.14,5.38-5.33,7.83-6.55,2.45-1.22,4.74-1.87,6.86-1.95,2.37-.09,4.51.53,6.44,1.83,5.05,3.46,7.79,11.13,8.22,23,.2,5.44.04,10.31-.47,14.61-.85,5.73-3.26,13.07-7.24,22.03-3.97,8.96-8.11,16.38-12.43,22.27-1.99,2.62-4.45,5.43-7.36,8.42-2.92,2.99-5.53,5.48-7.85,7.48-2.32,2-3.81,3.01-4.48,3.03h-.16s-.38-.14-.38-.14c-.04,0-.05.04-.05.11s.03.15.09.24c.06.09.09.17.09.24.02.6-.88,1.61-2.7,3.02-3.44,2.6-5.48,3.92-6.12,3.94-.11,0-.16-.03-.16-.1l.1-.27c.17-.29.25-.49.24-.59s-.06-.16-.17-.15c-.46.02-2.56,1.09-6.3,3.23-3.74,2.14-6.25,3.35-7.51,3.65-1.05.25-2.19.58-3.42.97-.63.24-1.03.36-1.21.36l-.11-.05c-.01-.28,2.64-1.85,7.95-4.7,3.78-2.08,7.76-4.66,11.95-7.74,4.19-3.07,7.01-5.49,8.47-7.24l.04-.21c-.35.01-1.99,1.15-4.92,3.42-4.16,3.23-7.58,5.55-10.26,6.96l-4.32,2.44,1.15-1.95c.87-1.38,2.33-2.71,4.39-4.01,2.06-1.3,4.17-2.9,6.33-4.82,1.61-1.44,2.41-2.35,2.39-2.74,0-.18-.15-.26-.43-.25-.21,0-.51.07-.9.19h-.05c-.07,0-.11-.03-.11-.1-.01-.28.47-1.04,1.46-2.28.54-.66,1.12-1.28,1.74-1.87,1.88-1.87,5.1-6.03,9.68-12.46,4.31-6.07,6.45-9.49,6.42-10.27v-.05c-.28.01-1.86,1.96-4.72,5.85-2.87,3.89-5.65,7.07-8.36,9.54l-4.06,3.6,10.24-14.55c3.09-4.5,6.13-10.02,9.11-16.55,2.98-6.53,4.99-12.08,6.03-16.65.51-2.53.91-5.35,1.2-8.46.29-3.11.43-5.33.42-6.68-.01-1.34-.03-2.18-.04-2.49-.06-1.66-.25-2.49-.57-2.47-.46.02-1.8,1.52-4.03,4.5-10.12,14.49-23.03,38.44-38.72,71.86-5.97,12.82-9.77,20.28-11.39,22.39-2.82,3.32-5.74,5.04-8.78,5.15ZM627.11,269.99c.21,0,.33-.26.34-.76,0-.25-.07-.5-.19-.76s-.21-.39-.28-.39c-.11,0-.17.27-.18.8.03.74.13,1.11.31,1.1ZM627.61,260.57c.21,0,.46-1.08.73-3.21.36-2.7.51-4.81.46-6.33-.01-.35-.04-.53-.07-.53-.21,0-.46,1.08-.73,3.21-.36,2.77-.51,4.88-.46,6.33.01.35.04.53.07.53ZM629.29,245.54c.11,0,.23-.08.36-.23.14-.15.26-.31.38-.49.12-.18.17-.32.17-.43-.04-.25-.21-.36-.49-.35-.53.02-.79.28-.77.77s.13.74.35.73ZM652.84,262.3c.21,0,.83-1.06,1.85-3.15.75-1.65,1.12-2.66,1.11-3.01,0-.07-.02-.11-.06-.1-.21,0-.83,1.06-1.85,3.15-.75,1.66-1.12,2.66-1.11,3.01,0,.07.02.11.06.1ZM657.42,252.58c.41-.3,1.86-2.92,4.33-7.86,2.43-5.08,3.64-7.83,3.63-8.25l-.06-.05c-.28.01-1.76,2.72-4.43,8.12-2.37,4.86-3.55,7.53-3.53,7.99,0,.04.02.05.05.05ZM667.7,272.43c.6-.02,1.95-.83,4.05-2.43,1.99-1.63,2.99-2.53,2.98-2.71h-.05c-.28.01-1.48.69-3.59,2.04-2.48,1.72-3.73,2.65-3.72,2.79,0,.21.12.31.33.31Z"/>
      <path class="cls-2" d="M73.49,473.62c-10.59.39-19.83-3.03-27.71-10.28-8.65-7.64-15.18-20.06-19.59-37.24-.68-2.5-1.24-5.09-1.67-7.78-2.73-17.1-.47-38.18,6.78-63.23,5.3-18.22,13.25-37.27,23.84-57.14,10.59-19.87,22.43-37.91,35.53-54.11,16.7-20.38,31.16-33.9,43.37-40.56,12.21-6.66,22.38-10.13,30.5-10.44,5.28-.2,10.32.61,15.14,2.42,5.82,2.1,9.19,4.4,10.1,6.9.91,2.51,1.44,4.19,1.57,5.03.66,4.13-.21,9.64-2.62,16.52-2.88,8.35-8.1,19.66-15.66,33.91-12.02,22.88-20.63,39.65-25.81,50.31-5.18,10.66-8.91,19.27-11.19,25.82-4.41,12.04-6.28,20.18-5.6,24.42l.03.21c.15,1.13.2,2.09.17,2.87-.03.78-.14,1.19-.31,1.21-.17.02-.25.09-.23.2.03.18.21.42.54.73.71.65,1.08,1.12,1.13,1.4.03.21-.04.32-.21.33-.25,0-.69-.21-1.32-.64-1.14-.95-2.03-2.41-2.66-4.38-.55-1.69-.92-2.53-1.09-2.52s-.39.44-.64,1.3c-.26.61-.45.92-.6.93-.07,0-.14-.19-.2-.58-.24-1.52-.1-4.49.43-8.92.57-5.1,1.22-8.75,1.97-10.95.34-.97.48-1.64.43-1.99-.01-.07-.03-.11-.07-.1-.32.01-.83,1.13-1.53,3.36-1.88,5.97-2.68,11.92-2.41,17.85l.33,5.37-.77-4.18c-.41-2.54-.42-6.05-.03-10.5.39-4.46,1.07-8.5,2.04-12.13.79-3.02,1.14-4.81,1.05-5.4s.37-2.55,1.39-5.89c.74-2.44,1.05-4.07.92-4.89-.04-.25-.12-.39-.23-.42-.29-.06-.46-.23-.51-.51s.02-.68.21-1.18c.18-.5.25-.9.21-1.18-.03-.21-.1-.32-.21-.31s-.16-.01-.17-.05c-.03-.18.3-.54.99-1.1.9-.81,1.38-1.92,1.46-3.31.08-1.39,1.07-4.77,2.97-10.14,1.79-4.76,2.63-7.49,2.51-8.2l-.03-.16c-.22-1.38,3.69-9.79,11.74-25.23,18.41-34.99,27.34-54.18,26.8-57.57-.1-.64-.41-1.1-.91-1.41-.51-.3-1.39-.47-2.66-.51-1.26-.04-2.81-.03-4.64.04-3.83.14-6.6.41-8.28.81-1.69.4-3.65,1.12-5.89,2.16-9.39,4.33-19.53,11.78-30.4,22.35-3.65,3.55-7.86,8.17-12.65,13.88-4.79,5.71-8.94,10.91-12.45,15.61-3.51,4.7-5.21,7.44-5.09,8.21v.05c.11.17.16.3.17.37s-.02.11-.09.11l-.44-.09c-1.16.04-5.16,5.9-12.01,17.56l-2.59,4.42c-1.96,3.27-4,7.06-6.15,11.37-5.94,11.77-10.31,20.86-13.11,27.26-2.44,5.78-5.05,12.93-7.83,21.46-2.78,8.53-4.88,15.79-6.29,21.78-1,4.59-1.81,9.79-2.42,15.61-.61,5.82-.89,10.96-.85,15.44.12,2.95.42,5.96.91,9.03.89,5.55,2.39,11.32,4.52,17.32.81,2.21,1.96,4.66,3.43,7.34,1.47,2.68,2.85,4.95,4.14,6.81,1.29,1.85,2.14,2.77,2.56,2.76l.26-.06c.46-.02.91.41,1.37,1.28,1.16,1.95,3.27,3.2,6.33,3.76,3.06.56,5.82.8,8.29.71,1.9-.07,3.9-.29,6-.65,2.08-.47,5.08-1.41,9-2.84,4.18-1.51,8.46-3.34,12.82-5.49,5.35-2.62,12.05-6.45,20.08-11.52,7.52-4.76,14.03-9.12,19.51-13.09,2.44-1.76,5.96-4.1,10.56-7,5.21-3.29,7.94-4.93,8.21-4.94s6.02-3.55,17.28-10.61c11.75-7.33,19.23-11.79,22.44-13.36,6.62-3.3,14.9-6.76,24.83-10.36,4.01-1.46,6.63-2.27,7.84-2.42,1.71-.13,2.54-.38,2.48-.73l-.1-.32c-.03-.21.11-.32.42-.34.56-.02.89.23.97.76.06.35.19.53.4.52.11,0,.21-.04.3-.12.55-.3,2.43-.73,5.64-1.28,3.2-.55,6.66-1.05,10.37-1.53,3.71-.47,6.62-.75,8.73-.83,3.83-.14,8.66.35,14.46,1.49,2.82.57,4.25,1.03,4.31,1.39.02.11-.08.16-.29.17-.28.01-.69-.03-1.24-.11-4.85-.92-10.45-1.27-16.78-1.03-4.61.17-9.48.81-14.61,1.93-5.95,1.32-10.6,2.54-13.96,3.66-1.58.52-2.35.89-2.32,1.1h.21c.77-.04,3.23-.59,7.38-1.67,4.52-1.2,9.69-2.03,15.53-2.5l4.85-.23c.92,0,1.38.02,1.39.06s-.09.08-.3.12c-1.61.31-2.39.67-2.32,1.07s-1.72.84-5.37,1.29c-4.29.62-8.71,1.73-13.27,3.32-2.65.92-3.93,1.62-3.86,2.12.03.18.26.28.68.29.03,0,.06.02.06.05.05.28-2.52,1.64-7.68,4.07-6.58,3.09-15.02,7.65-25.31,13.68-5.57,3.26-8.31,5.16-8.22,5.69l.06.05.1-.06c9.2-5.1,15.69-8.51,19.47-10.21,3.78-1.7,7.36-3.15,10.75-4.34,1.37-.48,2.22-.72,2.54-.73h.11c-.21.25-4.57,2.73-13.1,7.41-14.73,8.15-34.19,20.25-58.38,36.29-10.75,7.12-21.45,13.77-32.09,19.96-10.64,6.19-18.48,10.34-23.52,12.44-9.59,3.77-18.06,5.79-25.41,6.06ZM25.47,394.94c.18,0,.56-2.15,1.15-6.44.74-5.75,1.39-9.7,1.93-11.86.49-1.83.7-2.94.64-3.33-.02-.11-.06-.16-.13-.16-.42.02-.96,1.83-1.63,5.45-1.3,7.37-1.98,12.64-2.04,15.81v.37c.02.11.05.16.08.16ZM30.04,368.37c.14,0,.49-.94,1.04-2.81.55-1.87.78-3.09.69-3.65-.01-.07-.05-.1-.12-.1-.21,0-.55.97-1.02,2.89-.47,1.92-.67,3.11-.6,3.57l.02.11ZM32.08,360.57c.42-.02.71-.33.86-.94.09-.32.09-.75,0-1.28-.07-.42-.15-.63-.26-.63-.14,0-.3.26-.46.76-.37.8-.52,1.37-.47,1.72.04.25.15.37.32.36ZM47.72,319.51c.21,0,.53-.53.97-1.58.24-.68.34-1.17.3-1.45-.01-.07-.05-.1-.12-.1-.21,0-.53.54-.97,1.58-.24.72-.34,1.19-.31,1.4.02.11.06.16.13.16ZM50.08,314.36c.25,0,.88-1.01,1.91-3,.68-1.27,1-2.03.96-2.28,0-.03-.03-.05-.06-.05-.21,0-.85.99-1.92,2.95-.69,1.23-1.01,2.01-.96,2.33,0,.04.03.05.06.05ZM55.05,304.63c.25,0,1.92-2.83,5.02-8.45,2.48-4.61,3.69-7.16,3.61-7.65-.28.01-1.6,2.17-3.95,6.49-3.24,5.84-4.82,9.03-4.74,9.56,0,.04.03.05.06.05ZM65.73,285.04c.28-.01.78-.54,1.5-1.6.58-.8.85-1.29.83-1.47,0-.03-.03-.05-.06-.05-.25,0-.75.53-1.5,1.55-.57.87-.84,1.38-.82,1.52,0,.04.03.05.06.05ZM83.96,288.2s-.06-.03-.07-.1c-.05-.28.05-.77.3-1.45.33-1.01.64-1.52.92-1.53.07,0,.11.05.13.16.03.18-.08.62-.32,1.34-.4,1.05-.72,1.57-.97,1.58ZM126.52,325.02s-.06-.05-.08-.16c-.03-.21,0-.53.11-.96.12-.79.45-1.19.97-1.21.21,0,.33.06.35.2.03.21-.06.51-.28.89s-.44.68-.65.9c-.21.22-.35.33-.42.34ZM241.07,372.18c-.53-.02-.81-.08-.83-.18-.01-.07.11-.16.35-.28.25-.12.51-.18.79-.19.43.02.66.14.69.35.03.18-.31.28-1.01.3ZM245.58,371.16c-.85,0-1.28-.06-1.3-.17-.03-.21.46-.34,1.48-.37.81-.03,1.23.06,1.26.27.02.11-.46.2-1.44.27Z"/>
      <path class="cls-2" d="M294.71,414.23c-1.55.06-3.12-.03-4.71-.25-6.67-1.25-12.11-4.7-16.3-10.35-4.19-5.66-6.9-12.32-8.13-19.99-1.4-8.76-.59-17.68,2.42-26.75,1.31-3.57,3.14-7.05,5.5-10.44,2.36-3.39,4.83-6.12,7.4-8.17,1.4-1.01,3.03-1.98,4.9-2.9,2.93-1.39,5.04-2.11,6.34-2.15.42-.02.65.08.68.29v.37c.06.32.38.47.98.44.28-.01,1.21-.17,2.79-.48-1.99,1.07-3.02,1.69-3.1,1.87.03.21.35.31.95.28.77-.03,2.01-.25,3.72-.67.83.33,1.65.58,2.46.76,3.76.93,5.87,1.38,6.32,1.37s.66-.17.62-.45c-.1-.64-.05-.96.16-.97.11,0,.22.05.34.15.61.26,1.94.62,3.99,1.08,5.61,1.25,9.19,1.85,10.74,1.79,1.16-.04,2.23.31,3.19,1.05.97.75,2.58,1.08,4.83.99,3.46-.02,5.23.14,5.28.5.07.42-1.79.9-5.56,1.43-3.29.44-4.92.75-4.9.93.01.07.28.11.82.13,4.06.17,6.14.57,6.24,1.21.07.46-.38.92-1.37,1.38-.86.39-1.92.6-3.19.65-1.76.07-2.6.31-2.54.73l.11.37c.07.46-.42.89-1.49,1.28-1.27.47-3.04.79-5.32.94-1.07.15-1.59.38-1.53.7.08.53,1.06.97,2.92,1.33l2.87.37-2.21,1.1c-.99.46-1.55.84-1.68,1.13-.13.29-.17.59-.12.91.07.42.24.95.52,1.58.69,1.89,1.29,4.45,1.81,7.66,1.12,7,1.53,12.55,1.22,16.65-.66,5.86-2.1,11.14-4.34,15.87-2.24,4.72-5.03,8.34-8.38,10.84-4.83,3.41-9.93,5.22-15.27,5.42ZM291.37,397.67c5.52-.2,9.59-3.32,12.2-9.36,2.45-5.71,3.05-12.45,1.81-20.22-.84-5.27-2.12-9.41-3.84-12.44-.78-1.32-1.2-2.21-1.28-2.67-.08-.49.31-1.18,1.16-2.07,1.16-1.14,2.04-1.87,2.63-2.18.2-.08.29-.21.26-.38-.07-.46-1.55-1.31-4.44-2.55-1.48-.62-3.26-.89-5.33-.82s-4.36.48-6.97,1.22c-.37,1.22-.54,1.94-.51,2.15.04.25.13.37.27.36.18,0,.39-.1.64-.29l.25-.06c.01.07-.21.35-.66.82-.58.55-.86.94-.83,1.15,0,.04.05.05.14.05s.15.1.18.31c.05.28-.04.73-.26,1.34-.37,1.01-.55,2.13-.53,3.35.02,1.23-.5,3.08-1.55,5.58-2.42,5.67-3.59,10.51-3.49,14.53.09,4.01.27,6.82.52,8.41.86,5.37,2.63,9.38,5.32,12.01.55.58,1.04.99,1.47,1.23.81.4,1.75.58,2.85.53ZM298.44,411.32c.53-.02.78-.12.75-.29-.03-.21-.28-.31-.74-.29-.35.01-.63.07-.85.17-.21.1-.32.18-.3.25.02.14.4.2,1.14.17ZM301.02,410.53c1.07-.15,2.61-.82,4.61-2.04,2.26-1.36,3.9-2.6,4.93-3.7.76-.77,1.14-1.2,1.12-1.27-.11,0-.71.45-1.8,1.35-1.6,1.27-3.68,2.52-6.25,3.75-1.94.93-2.89,1.53-2.84,1.81.01.07.09.1.23.1ZM317.55,394.4c.11,0,.34-.33.69-.99.65-1.02.94-1.78.86-2.27-.05-.28-.12-.42-.23-.42-.21,0-.53.77-.96,2.28-.26.79-.38,1.26-.36,1.4ZM319.38,389.54c.11,0,.31-.47.62-1.41.63-2.01.86-3.6.67-4.77-.02-.14-.07-.21-.14-.21-.21,0-.53,1.14-.94,3.39-.26,1.47-.36,2.41-.29,2.84.02.11.04.16.08.16Z"/>
      <path class="cls-2" d="M350.83,401.01c-8.75.18-14.12.2-16.13.06-1.26-.17-1.95-.57-2.05-1.2-.03-.21-.04-.46-.01-.75.01-1.03-.44-5.53-1.36-13.49-.86-7.18-1.58-15.1-2.15-23.76-.45-8.16-1.34-16.57-2.65-25.23-1.59-9.97-2.16-14.96-1.7-14.97h.05c.15.06.51.42,1.08,1.08.7.83,1.22,1.23,1.57,1.22.21,0,.37-.2.49-.58.12-.38.24-.57.39-.57.15.03.33.27.54.73,1.53,3.14,2.37,4.75,2.52,4.81h.05c.11,0,.12-.25.04-.75-.15-.92-.57-2.25-1.28-4.01-.32-.7-.53-1.3-.61-1.79-.03-.21-.02-.32.06-.32.17,0,.48.36.92,1.11.44.75.84,1.58,1.19,2.49,1.54,3.46,2.63,5.18,3.27,5.16.07,0,.15-.05.24-.14.09-.09.31-.65.66-1.68.35-1.03.76-2.26,1.24-3.7,2.3-7.3,5.65-11.03,10.05-11.2,2.22-.08,4.68.72,7.39,2.39,1.63.9,3.1,2.05,4.4,3.46,1.3,1.41,3.11,3.78,5.41,7.1,2.79,3.95,5.48,7.18,8.08,9.7,2.6,2.52,4.55,3.8,5.87,3.86.64.05,1.26.45,1.84,1.21.33.49.66.76,1.01.82.35.06.62.08.83.08.49-.02,1.13-.13,1.91-.34,2.62-.67,4.38-1.02,5.3-1.05.46-.02.7.05.72.19.06.35-.64.86-2.09,1.52-2.76,1.31-5.21,2.08-7.33,2.3-.35.05-.52.09-.51.13.02.11.87.22,2.57.33,1.7.12,2.79.25,3.28.41.49.16.75.36.79.61.06.39-.37.78-1.3,1.17-.69.31-1.49.55-2.38.73-1.83.32-2.69.76-2.6,1.32.01.07.05.16.12.26.07.1.11.21.13.32.07.46-.65.72-2.16.77-1.72.06-3.72-.26-5.99-.98-2.27-.72-4.39-1.68-6.35-2.88l-3.19-2.01c.75.68,1.47,1.36,2.18,2.03.71.67,1.68,1.42,2.91,2.26,1.08.78,3.69,2.41,7.84,4.88-.91-.14-1.79-.28-2.64-.41-.85-.13-1.78-.36-2.79-.7-1.01-.34-1.88-.68-2.61-1.05-2.02-1.13-4.46-2.98-7.31-5.54-2.85-2.56-4.9-4.73-6.14-6.52-1.24-1.78-2.02-2.67-2.34-2.66-.35.01-.77,1.64-1.24,4.87-.47,3.24-.89,7.28-1.25,12.12-.19,2.99-.19,8.43,0,16.32.16,8.1.56,18.25,1.2,30.46ZM347.15,365.69c.07,0,.13-.05.19-.14.06-.09.07-.22.04-.4l-.06-.37c-.03-.21-.11-.43-.24-.66-.13-.23-.22-.34-.29-.34-.11,0-.13.29-.08.86.11.71.26,1.06.43,1.05ZM347.14,361.95c.46-.02.68-2.96.66-8.82-.5,2.86-.78,4.76-.84,5.68-.1,1.14-.1,2.03,0,2.67.05.32.11.48.18.47Z"/>
      <path class="cls-2" d="M395.18,390.89c-1.97.07-3.94-.42-5.92-1.49-2.79-1.53-4.8-3.73-6.02-6.6-1.22-2.87-2.09-5.95-2.62-9.23-1.11-6.96-1.34-18.13-.68-33.52.7-16.91,1.48-25.38,2.36-25.42h.11c.18-.01.35-.13.53-.37.17-.24.3-.54.39-.89.08-.36.18-.54.28-.54.14,0,.33.64.57,1.92.24,1.29.43,2.02.56,2.19.13.17.25.26.36.25.14,0,.33-.14.57-.39.24-.26.43-.39.57-.39.18,0,.3.22.37.68.06.39.1.98.12,1.78s.03,1.6.04,2.4c0,.8-.01,1.41-.05,1.84l.02.48c.05.32.17.49.35.52.42-.02.63-1.46.63-4.34-.05-2.56.11-3.84.5-3.86.14,0,.28.29.41.89.1.6.13,1.35.09,2.24-.02,1.42.09,2.91.34,4.47.6,3.75,1.38,6.19,2.34,7.33.72.76,1.42,2.49,2.1,5.2.77,2.82,1.36,4.22,1.79,4.2.25,0,.38.08.42.28l.07.45c.15.92.17,4.37.09,10.34-.09,5.98.03,10.02.37,12.14.19,1.2.48,1.79.87,1.78.56-.02,1.71-1.62,3.45-4.79,1.74-3.17,5.72-11.1,11.94-23.77,7.42-15.13,12.32-24.68,14.7-28.65,3.69-5.5,7.41-8.33,11.18-8.47,1.41-.05,2.6.46,3.59,1.52,1.32,1.62,2.39,3.41,3.22,5.37.83,1.96,1.35,3.63,1.57,5.01.35,2.19.35,9.5,0,21.92-.28,8.86-.65,15.77-1.1,20.73-.2,1.86-.18,4.62.05,8.29.23,3.67.25,6.22.05,7.65-.22,1.75-.17,3.56.12,5.43.27,1.7.23,2.55-.12,2.56-.04,0-.08-.01-.14-.05-.06-.03-.12-.05-.19-.05-.25,0-.42.31-.52.9-.1.59-.11,1.23-.04,1.92.07.69.13,1.14.16,1.35.15.95.36,1.94.63,2.96.17.6.29,1.13.36,1.59.17,1.1.05,1.65-.37,1.67-.39.01-.87-.82-1.46-2.51l-3.4-10.01c.81,5.76,1.19,8.77,1.12,9.02-.03.46-.14.7-.31.71-.42.02-.98-.67-1.66-2.07-.46-.87-.86-1.82-1.2-2.84-.62-2.11-1.16-3.16-1.62-3.14l-.31.06c-.91.03-2-3.41-3.24-10.33-.77-4.13-1.29-6.19-1.57-6.18-.25,0-.33,1.51-.24,4.49.2,3.94-.01,5.92-.64,5.94-.42.02-.79-.95-1.1-2.89-.45-2.79-.79-6.92-1.02-12.39-.15-3.16-.16-5.75-.02-7.78.19-2.78.24-4.49.14-5.12l-.09-.21c-.28.01-1,1.3-2.14,3.87-2.55,5.5-5.84,11.89-9.84,19.16-4.01,7.28-7.13,12.5-9.39,15.68-2.96,3.88-5.3,6.36-7.04,7.46-1.82,1.03-3.64,1.57-5.47,1.64ZM419.02,356.36c.18,0,.57-.5,1.2-1.48.39-.65.77-1.42,1.14-2.31.37-.88.65-1.61.82-2.16.18-.56.25-.92.22-1.1-.01-.07-.05-.1-.12-.1-.18,0-.89,1.19-2.14,3.55-.91,1.85-1.32,3.02-1.24,3.51.01.07.05.1.12.1ZM422.8,348.43c.18,0,.54-.46,1.11-1.37.37-.55.55-.87.53-.98h-.05c-.07,0-.34.23-.8.67-.8.78-1.17,1.29-1.13,1.54.02.11.13.16.34.15ZM427.54,340.52c.11,0,.39-.32.86-.94.57-.63.83-1.15.76-1.57-.03-.18-.11-.26-.25-.26-.39.01-.72.49-.99,1.42-.31.72-.45,1.16-.43,1.3,0,.04.03.05.06.05Z"/>
      <path class="cls-2" d="M474,423.05c-1.27.05-2.47-.07-3.61-.35-5.65-1.46-9.44-4.26-11.37-8.4-1.94-4.14-3.21-8.1-3.81-11.88-.65-4.1-.93-8.83-.84-14.21.1-12.87,1.8-27.07,5.09-42.58,4.3-20.24,10.06-34.86,17.26-43.83,3.58-4.65,7.74-7.06,12.49-7.24l.84-.03c5.03-.19,9.38,1.93,13.06,6.34,2.46,2.97,4,6.45,4.64,10.44,1.04,6.5-.16,13.64-3.59,21.41-2.72,6.22-6.73,12.14-12.02,17.78-1.33,1.4-3.18,2.93-5.53,4.58s-4.63,3.09-6.82,4.31c-2.19,1.22-3.73,1.84-4.61,1.88-.86.17-1.62,2.27-2.29,6.3-.67,4.02-1.17,8.76-1.5,14.21-.63,9.37-.62,16.04,0,20,.23,1.45.55,2.42.94,2.9.75.68,1.44,1.01,2.07.99.6-.02,1.86-.99,3.78-2.91,4.79-4.8,8.39-9.2,10.79-13.2,3.14-5.38,5.89-9.67,8.24-12.89.87-1.17,2.04-3.26,3.51-6.26,1.1-2.21,3.11-6.11,6.04-11.69l2.59-5.06c2.29-4.49,3.56-6.74,3.81-6.75.03.18-.22.93-.75,2.27-.73,1.66-1.07,2.62-1.03,2.86l.06.05c.35-.01,1.39-1.79,3.13-5.34,2.18-4.52,3.4-6.83,3.67-6.91.27-.08.42-.12.46-.12.11,0,.17.07.19.21.14.88-1.15,4.88-3.87,11.98-.66,1.66-1.08,2.65-1.28,2.98-.24.51-.34.87-.31,1.08.03.18.09.26.2.26s.4-.4.87-1.18c.48-.78,1.02-1.82,1.62-3.13.61-1.3,1.2-2.48,1.77-3.53.58-1.05.98-1.69,1.21-1.91s.41-.34.56-.34c.21,0,.35.18.41.57.17,1.1-.17,3.01-1.05,5.74-.54,1.51-.75,2.61-.64,3.28.06.35.2.57.42.65.23.08.36.28.41.6.21,1.34-.72,5.24-2.81,11.68-.57,1.73-1.01,2.97-1.32,3.73-.58,1.44-.85,2.29-.82,2.54,0,.04.03.05.06.05.32-.01,1.24-1.52,2.78-4.53,2.11-4.06,3.43-6.1,3.96-6.12.11,0,.17.1.21.31.21,1.34-1.04,5.1-3.77,11.28-3.29,7.09-7.45,14.35-12.48,21.77-5.03,7.42-9.61,13.11-13.76,17.07-5.87,5.34-11.64,8.11-17.3,8.32ZM456.16,393.48c.07,0,.22-1.64.44-4.92.13-1.82.19-2.92.16-3.31-.02-.11-.06-.16-.13-.16s-.18.18-.32.52c-.14.34-.24.99-.3,1.93-.06.94-.08,1.97-.04,3.07.06,1.46.11,2.36.17,2.71l.03.16ZM456.49,382.91c.14,0,.29-.3.44-.87.21-.9.26-1.72.14-2.46-.06-.35-.14-.55-.25-.58-.18,0-.34.3-.5.87-.21.9-.26,1.72-.14,2.46.06.35.16.55.3.58ZM460.32,357.01c.25,0,.57-1.18.98-3.5.31-1.58.42-2.66.33-3.26-.02-.11-.04-.16-.08-.16-.25,0-.59.9-1.03,2.68-.44,1.78-.62,2.93-.54,3.46s.2.79.34.79ZM475.2,358.75c.07,0,.2-.11.4-.33s.42-.52.68-.91.38-.64.35-.79c-.03-.21-.33-.31-.89-.29-.32.01-.58.14-.79.38-.21.24-.29.52-.24.83.12.74.28,1.11.49,1.1ZM475.27,355.23c.49-.02,1.37-.41,2.63-1.16,1.74-1.06,2.78-1.86,3.12-2.41l-.02-.11s-.04-.05-.11-.05c-.49.02-1.4.41-2.73,1.17-.91.5-1.67.99-2.26,1.47-.6.48-.88.81-.85.99.01.07.09.1.23.1ZM475.81,352.65c.35-.01.94-.3,1.77-.87.03,0,.05-.02.04-.05.68-.38.98-.84.9-1.37-.02-.11-.08-.24-.2-.39-.11-.16-.18-.27-.19-.34s0-.11.04-.11c.07,0,.16.03.28.1.12.07.26.1.44.09.49-.02.94-.21,1.34-.58,1.04-1.03,2.03-2.71,2.97-5.02.38-.94.54-1.6.48-1.99-.1-.64.28-2.21,1.16-4.74.87-2.52,1.26-4.06,1.17-4.63-.04-.25.17-1.02.64-2.32.46-1.3,1.08-2.76,1.85-4.39,1.77-4.01,2.5-6.97,2.19-8.88-.15-.92-.54-1.49-1.18-1.72h-.21c-.91.04-2.11,1.33-3.58,3.87-1.54,2.8-3.11,6.45-4.72,10.97-1.61,4.52-2.99,9.33-4.12,14.42l-.06.27c-.99,4.2-1.44,6.63-1.33,7.3.04.25.15.37.32.36Z"/>
      <path class="cls-2" d="M536.95,394.11c-8.75.18-14.12.2-16.13.06-1.26-.17-1.95-.57-2.05-1.2-.03-.21-.04-.46-.01-.75.01-1.03-.44-5.53-1.36-13.49-.86-7.18-1.58-15.1-2.15-23.76-.45-8.16-1.34-16.57-2.65-25.23-1.59-9.97-2.16-14.96-1.7-14.97h.05c.15.06.51.42,1.08,1.08.7.83,1.22,1.23,1.57,1.22.21,0,.37-.2.49-.58.12-.38.24-.57.39-.57.15.03.33.27.54.73,1.53,3.14,2.37,4.75,2.52,4.81h.05c.11,0,.12-.25.04-.75-.15-.92-.57-2.25-1.28-4.01-.32-.7-.53-1.3-.61-1.79-.03-.21-.02-.32.06-.32.17,0,.48.36.92,1.11.44.75.84,1.58,1.19,2.49,1.54,3.46,2.63,5.18,3.27,5.16.07,0,.15-.05.24-.14.09-.09.31-.65.66-1.68.35-1.03.76-2.26,1.24-3.7,2.3-7.3,5.65-11.03,10.05-11.2,2.22-.08,4.68.72,7.39,2.39,1.63.9,3.1,2.05,4.4,3.46,1.3,1.41,3.11,3.78,5.41,7.1,2.79,3.95,5.48,7.18,8.08,9.7,2.6,2.52,4.55,3.8,5.87,3.86.64.05,1.26.45,1.84,1.21.33.49.66.76,1.01.82.35.06.62.08.83.08.49-.02,1.13-.13,1.91-.34,2.62-.67,4.38-1.02,5.3-1.05.46-.02.7.05.72.19.06.35-.64.86-2.09,1.52-2.76,1.31-5.21,2.08-7.33,2.3-.35.05-.52.09-.51.13.02.11.87.22,2.57.33,1.7.12,2.79.25,3.28.41.49.16.75.36.79.61.06.39-.37.78-1.3,1.17-.69.31-1.49.55-2.38.73-1.83.32-2.69.76-2.6,1.32.01.07.05.16.12.26.07.1.11.21.13.32.07.46-.65.72-2.16.77-1.72.06-3.72-.26-5.99-.98-2.27-.72-4.39-1.68-6.35-2.88l-3.19-2.01c.75.68,1.47,1.36,2.18,2.03.71.67,1.68,1.42,2.91,2.26,1.08.78,3.69,2.41,7.84,4.88-.91-.14-1.79-.28-2.64-.41-.85-.13-1.78-.36-2.79-.7-1.01-.34-1.88-.68-2.61-1.05-2.02-1.13-4.46-2.98-7.31-5.54-2.85-2.56-4.9-4.73-6.14-6.52-1.24-1.78-2.02-2.67-2.34-2.66-.35.01-.77,1.64-1.24,4.87-.47,3.24-.89,7.28-1.25,12.12-.19,2.99-.19,8.43,0,16.32.16,8.1.56,18.25,1.2,30.46ZM533.27,358.79c.07,0,.13-.05.19-.14.06-.09.07-.22.04-.4l-.06-.37c-.03-.21-.11-.43-.24-.66-.13-.23-.22-.34-.29-.34-.11,0-.13.29-.08.86.11.71.26,1.06.43,1.05ZM533.26,355.06c.46-.02.68-2.96.66-8.82-.5,2.86-.78,4.76-.84,5.68-.1,1.14-.1,2.03,0,2.67.05.32.11.48.18.47Z"/>
      <g>
        <path class="cls-2" d="M688.54,337.75c-.88,2.46-2.3,4.63-3.5,6.92-.52,1.95-1.62,3.56-2.55,5.38-.28.52-.77.49-.99.85-.24,1.55-.95,2.93-1.8,4.17-.3.42-.73.8-1.04,1.24-.32.46.5.43.19,1.06-1.17,1.82-1.99,3.98-3.12,5.82-.46,1.29-.48,2.72-1.08,3.94-1.81,3.83-2.74,8.2-4.61,12,.01,1.38-.83,2.32-1.22,3.53-.17.86.09,1.76-.21,2.57-.51,1.52-1.22,2.87-1.92,4.22-.25.55-.02,1.12-.13,1.74-.76,2.62-1.93,5.29-1.9,8.13.13,1.09-.17,2.03-.45,3.01-.06,2.09-.44,4.08-.76,6.1-.03,3.08-.36,6.18-.25,9.27.08.48-.47,1.25-.32,1.56.52.48,0,1.44.16,2.07.29,1.76.3,3.7.56,5.45.04.72.62,1.35.85,2.14.35,1.13.43,2.3.85,3.43.82,2.29,1.33,4.68,2.09,6.91.21,1.52.97,3.34,2.02,4.45.54.5.88,1.15.92,1.85.02.32,0,.64.01.83,0,.44.47.06.74.48,1.07,2.19,2.85,4.12,4.7,5.8.42.57.7,1.2,1.3,1.5,3.02,1.8,6.69,2.09,9.82,2.69.47-.01,1.09-.37,1.48-.43.4-.07.47.22,1.02.13,3.01-.63,6.17-1.3,9.12-2.47.71-.29.85.22,1.42,0,2.44-1.38,5.05-2.49,7.76-3.47,2.01-.89,4.01-1.71,6.13-2.38.53-.16.95-.51,1.35-.86,1.54-1.4,3.47-1.97,5.12-3.18.23-.15.46-.3.67-.44.65-.49.77.08,1.31-.19,2.58-1.81,5.2-3.92,8.34-4.84,1.45-1.04,2.82-2.45,4.37-3.54.23-.11.41-.13.45-.06.06.06-.06.21-.2.35-.31.26-.34.43.02.25.43-.23.91-.77,1.36-1.16.7-.49,1.12-1.43,2.03-1.43.39-.02.36-.04.55-.14.44-.63,1.32-.84,1.97-1.27,4.09-3.27,8.85-6.19,13.78-8.26,1.41-.51,2.3-1.8,3.66-2.32.42-.17.62,0,.65.21.04.18.08.24.33.03.88-.71,1.69-1.9,2.73-2.43.46-.04.74.17,1.24-.18,2.93-1.83,5.87-3.83,8.88-5.62,3.94-2,8.07-5.18,12.47-6.19,1.55-1.5,3.78-2.11,5.81-2.97,5.92-1.96,11.67-4.28,17.66-6.04,1.33,0,2.53-.56,3.74-.86.38-.1.46-.17.46-.29,0-.33.77-.37,1.1-.28.48.13.86.49,1.32.56.99,0,2.34-.19,2.9-1,.19-.27.4-.61.76-.69.77-.18,1.82.76,2.4.06.46-.29,1.01.1,1.61-.12.38-.13.82-.36,1.16-.3.39.04.42.55.63.74.11.12.32.13.58.11.53-.07,1.07.15,1.62.17.69,0,1.28-.45,1.93-.55,4.43-.44,9.34-.44,13.89.87.82.54,1.04.28,1.96.25,1.09.14,2.21.71,3.3.91.57.15,1.21.61,1.3,1.18.05.34-.16.63-.51.72-1.06.26-2.42-.31-3.47-.58-3.57-.25-7.24-.45-10.83-.79-.26-.05-1.55.07-1.06.48.18.19.31.51.11.86-.09.12-.15.26-.29.33-.23.09-.53-.16-.89.01-.35.18-.72.65-1.07.91-.48.43-1.34.27-1.97.56-1.61.65-3.48.69-5.27.61-.76.07-1.34.63-2.16.7-.58.09-1.18.12-1.73.27-1.09.32-2.11.9-3.33,1.01-.61.09-1.51.08-1.83.64-.21.38-.18.91-.45,1.25-.23.31-.62.48-1.01.67-1.02.52-2.31.74-3.4,1.09-.87.3-1.48,1.21-2.47,1.44-1.64.41-3.07,1.37-4.46,2.21-.15.1-.4.35-.1.36,1.03-.15,2.55-1,3.54-1.03.25.03.22.29.25.5.17.51.98.14,1.34.35.23.09.15.3-.14.52-.35.24-.8.44-1.21.65-3.86,1.67-7.26,4.03-11.14,5.69-.57.26-.85.03-1.17.23-1.36,1.46-3.16,2.27-5.13,2.9-.51.22-.86.66-1.36.9-.48.2-.94.05-1.37.41-1.92,1.69-4.28,2.87-6.59,4.04-1.03.61-1.76,1.6-2.93,1.86-.79.19-1.49.55-2.11,1.02-1.05.86-2.69.83-3.82,1.58-.87.51-1.33,1.48-2.18,2.08-1.66,1.08-3.28,2.12-5.24,2.83-1.93,1.04-3.36,2.79-5.41,3.66-1.35.38-2.33,1.24-3.52,1.89-1.59,1.28-3.35,2.39-5.21,3.25-.59.67-1.18.52-1.63,1.12-.47.68-1.37.39-2.03.87-4.09,3.56-9.41,5.53-14.01,8.5-.69.5-.82-.22-1.43.12-1,.59-1.74,1.61-2.79,2.26-2.21,1.13-4.5,2.03-6.51,3.47-3.68,1.4-6.94,3.58-10.64,5.01-.35.15-.71.33-.99.44-.28.1-.36.03-.33-.2.03-.23.07-.47-.13-.39-.25.07-.63.5-.98.85-.46.41-.62.76-1.06.32-.87-.25-1.48.85-2.24,1.04-1.88.37-3.76,1.02-5.65,1.35-2.19.18-4.36.58-6.52.84-1.73.54-3.54.75-5.47.37-3.33-.46-6.73-.53-10.01-2-1.42-.5-2.84-.97-3.86-2.02-.58-.21-1.14-.52-1.65-.92-1.06-.49-2.09-1.3-2.92-2.02-1.49-.64-2.61-2.69-4.24-3.25-3.91.1-7.55,1.2-11.34,2.04-13.45,2.83-26.04,7.95-37.41,14.72-.65.48-1.47.23-2.11.76-.29.24-.61.52-.92.71-.59.39-.22-.44-.84-.15-1.51,1.27-2.66,2.75-4.67,3.65-4.17,2.09-7.58,5.34-11.75,7.4-1.37.56-2.11,1.86-3.44,2.52-1.31.68-2.86,1.39-4.42,1.49-.26-.07-.02-.69-.26-.54-.11.06-.31.23-.52.4-.83.8-2.06.74-3.3.5-.77-.05-1.6.45-2.34.13-.37-.21-.64-.46-.98-.45-.42.05-.96-.35-1.34-.78-.43-.38-.73-.23-1.32-.41-.6-.18-.99-.76-1.53-1.16-.54-.44-.8-1.06-1.16-1.62-.55-.66-1.46-.42-2.13-.18-1.23.54-2.12,1.66-3.55,1.76-1.5.85-2.79,1.94-4.41,2.68-3.92,1.6-7.02,4.09-10.59,6.29-.31.14-.44.04-.56-.02-.12-.07-.28-.02-.58.24-.4.36-.83.72-1.28,1.05-6.39,4.41-12.66,10.68-21.87,9.04-.58-.09-1.17-.2-1.68-.56-.66-.64-1.37-1.27-2.19-1.66-.41-.27-.52-.77-.81-1.13-.23-.26-.58-.34-.89-.62-.56-.84-1.33-1.84-1.74-2.76-.56-2.22-.84-4.53-1.1-6.58-.51-1.58-.07-2.88.72-4.11.02-.06.05-.17.07-.22.05-.23-.16-.2-.4-.19-.2.02-.29-.09-.25-.33.33-1,1.01-2.16,1.4-3.17.18-.59-.3-.88-.18-1.41.81-4.2,2.57-7.99,3.92-11.97,1.24-2.59,1.86-5.85,3.66-8.05.29-1.89,1.57-3.36,2.17-5.11.27-.78.46-1.67.75-2.43.25-.59.83-.86.82-1.32.01-.79.62-1.28,1.08-1.83.36-.41.53-.73.31-.83-.08-.05-.18-.11-.24-.18-.15-.46.4-.88.63-1.33.33-.58.72-.81.9-1.34.27-2.08,1.42-3.96,2.38-5.64.92-2.19,1.88-4.35,3.2-6.42,1.13-3.14,2.59-6.15,4.46-8.85.57-2.35,1.61-4.51,3.17-6.27,1.04-2.19,1.73-4.37,3.22-6.37.72-1.02.79-2.39,1.41-3.49,2.59-4.65,4.59-9.96,8.02-14,1.64-4.18,3.59-8.31,6.14-11.96.34-.55-.09-.85.23-1.52,1.45-2.75,3.06-5.51,4.7-8.19.37-.57-.32-.09-.21-.56.29-.96,1.7-1.72,1.63-2.82-.34-1.08-.01-2.05.33-2.99.31-1.79.55-3.59,1.57-5.07.13-.29,0-.24-.27.07-1.12,1.4.07-2.07.05-2.54.43-1.59,1.34-2.88,1.14-4.68.21-3.37,1.53-6.32,2.54-9.33.71-1.46,1.89-2.64,1.98-4.31.03-1.21,1.29-1.83,1.45-2.88.04-1.28,1.13-2.06,1.35-3.21.2-1.39,1.24-2.35,1.9-3.51,1.44-1.85,2.72-3.96,3.6-6.11.66-.67,1.13-1.24,1.25-2.27.94-2.24,2.81-3.88,4.11-5.89,1.75-3.85,5.24-6.36,7.27-9.94.92-1.97,3.11-5.33,5.26-6.83.17.02.25.35.48.2.33-.22.3-1.04.59-1.35,1.55-1.48,3.2-3.27,5.02-4.43,2.05-.69,4.73-1.39,6.87-.43.59.4,1.04,1.02,1.68,1.36.61.31,1.02.81,1.22,1.39.26.46.75.64,1.06,1.1.36.55.57,1.24.74,1.84.68,2.53.12,4.81-1.13,6.89-.4.62-.27,1.41-.4,2.07-.83,1.96-1.96,3.87-3.16,5.51,0,.24.25.29.09.6-.41.73-1.24,1.64-1.64,2.39-.06.12-.08.21-.07.27.02.18.3.26.21.55-.09.28-.38.27-.5.45-.44,2.09-1.5,3.94-2.61,5.68-1.86,3.75-4.32,7.1-6.35,10.73-.41.73-.06.96-.37,1.62-1.09,2.17-2.27,4.25-3.54,6.24-.48,1.45-1.08,2.66-2.12,3.71-.64,2.86-2.79,4.88-4.15,7.3-1.19,2.61-2.05,5.36-3.91,7.55-.7,2.54-2.32,4.63-3.5,6.8-.57,2.64-2.06,4.73-3.5,6.89-.66,1.3-1.33,2.62-2.13,3.85-.43.95-.32,1.97-1.11,2.65-.27.31-.26.46-.08.6.15.12.23.25-.01.46-.34.3-.92.55-1.22.94-.54.64-.67,1.65-1.21,2.27-1.06,2.14-2.05,4.38-3.32,6.37-.41.63-.34,1.46-.34,2.19-.49,2-.4,4.28-.73,6.35-.34,1.88-1.34,3.58-1.88,5.38-.21.75.23,1.34-.13,2.17-.05.25-.27.76-.51.66-.28-.07-.81-.07-.93-.61-.27-.79.06-5.34-1.03-5.2-.59.07-1.3.8-1.15,1.32.2,2.21-2.06,3.61-2.62,5.58-.68,2.17-1.91,4.05-3.25,5.82-.49,1.35-1.16,2.55-2.02,3.64-.8,2.99-2.57,5.39-3.97,8.19-1.63,3.27-3.1,6.46-5.02,9.61-1.44,3.04-2.29,6.43-4.25,9.18-.47.71-.6,1.61-.92,2.37-.67,1.03-1.51,1.99-1.97,3.13-.31.71-.14,1.46-.52,2.11-.69,1.32-1.09,2.88-1.96,4.06-.17,1.01-.47,2.06-1.05,2.93-.76,2.05-2,3.7-2.43,5.88-1.28,2.42-2.54,4.73-3.78,7.14-.19.38,0,.5.21.63.19.11.25.33.1.69-1.16,2.58-2.4,5.17-3.52,7.7-.23.58.27.93.51,1.44.15.16.29.26.52.21.85-.16,1.49-.71,2.08-1.23.47-.31,1.07-.25,1.52-.64.29-.25.57-.6.87-.89.58-.56,1.21-1.05,1.85-1.42.58-.37.4.4.8.13.86-.55,1.53-2.1,2.56-2.41.17.05.27.24.51.07.57-.4,1.18-.95,1.76-1.4.56-.43,1.09-.94,1.7-1.33.44-.25.55.32.88.16.73-.43,1.13-1.3,1.85-1.73.46-.21,1.1-.09,1.53-.39,2.79-2.88,7-4.02,10.56-5.83.71-.38,1.4-.95,2.19-1.19.6-.19.79.48,1.35.18.89-.49,1.53-1.49,2.61-1.74.38-.13.71-.32.75-.75.01-.84.24-1.66.59-2.4,1.03-2.48,1.25-5.23,2.61-7.46.11-.98.67-1.86.81-2.88.12-.67.71-1.13.91-1.7.26-2.23,1.8-3.92,2.22-6.18.24-.94.9-1.61,1.36-2.41.61-1.05.56-2.54,1.13-3.7.65-1.34,1.46-2.59,2.07-3.95,4.14-8.79,7.84-17.97,12.83-26.26.72-2.63,2.26-4.94,3.58-7.22,1.13-2.87,2.44-5.76,4.15-8.26,4.83-10.71,10.97-20.64,16.1-31.28,1.02-2.16,2.55-3.99,3.3-6.31.51-1.25.42-2.76,1.06-4.01.64-1.37.03-3.11.56-4.58.54-1.83.78-3.93,1.59-5.65.2-1.99.69-4,.96-5.97.1-.53.42-1.09.67-1.46.63-3.45,2.4-6.73,3.63-9.99,1.87-3.38,3.21-7.08,5.36-10.27,1.09-1.62,2.75-2.88,3.44-4.77.54-2.5,2.1-4.33,3.65-6.16,1.33-2.49,2.89-4.79,4.47-7.13.45-.58,1.24-.74,1.61-1.27,1.02-2.82,3.08-4.95,5.23-6.92,1.65-2.78,3.92-5.03,6.44-6.99.45-.35.78-.87,1.38-.96.43-.06.93.05,1.37-.13,1.29-.57,2.43-1.54,4.12-1.07,2.08.44,3.93,1.61,4.99,3.59.36.57.79,1.17,1,1.79.16.55-.09,1.07.1,1.38,1.12,1.62.31,3.85-.22,5.32-.42.89-1.15,1.56-1.28,2.55-.13,2.15-1.28,3.77-2.29,5.47-.94,2.7-2.33,5.11-3.75,7.58-3.68,6.58-7.07,13.42-10.65,19.99-.44.74-1.18,1.35-1.63,2.08-.3.56.17.89-.19,1.55-3.56,6.51-6.8,12.74-10.64,18.99-.36,3.01-2.86,5.02-4.18,7.49-.31.57-.08,1.25-.4,1.73-.27.39-.86.83-1.13,1.22-.41.49.33.85.06,1.42-.43.77-1.38,1.53-1.76,2.33-.18,1.53-.79,2.98-1.43,4.33-.46.83-1.5,1.22-1.86,2.17-.93,1.92-2.27,3.72-3.2,5.69-.48,1.38-.76,2.92-1.46,4.19-.37.68-.08,1.51-.14,2.28-.24,1.11-.27,2.2-.53,3.36-.2.62.06.95-.04,1.6-.21.81-.56,1.68-.98,2.38-.34,1.06-.45,2.38-.69,3.51-.54,1.66-1.82,1.81-1.65-.47.07-.86-.29-1.51-.21-2.46-.02-.61.1-1.22-.16-1.69-.23-.26-.62.55-.99,1.03-.19.26-.4.54-.57.81-1.24,3.25-2.9,6.45-5.15,8.93-.29.59-.26,1.36-.62,1.9-.27.52-.82.9-1.12,1.37-.34.72.16,1.74-.51,2.34-1.53,1.74-2.03,4.21-3.32,6.09-.45.7-.93,1.39-1.21,2.19-.7,1.88-2.43,3.34-2.77,5.35-.05,1.1-1.06,2.05-1.57,2.98-.56,1.4-1.2,2.79-2.12,3.92-.46.57-.08,1.27-.63,1.87-.48.5-.36,1.26-.55,1.9-.3.76-1.06,1.42-1.43,2.03-.26.48-.01.97-.28,1.4-.25.39-.71.81-.93,1.29-2.1,5.48-4.4,10.83-6.93,16.06-1.07,2.79-1.91,5.72-3.72,8.01-.79.96-.74,2.25-1.12,3.39-1,2.16-1.84,4.56-2.46,6.88-.07.65-.31,1.36-.16,2.01.08.12.24.11.46,0,3.94-2.57,7.85-5.07,11.84-7.57,2.17-1.39,4.24-3.05,6.63-3.99,2.83-2.31,6.49-3.33,9.61-5.33,2.15-.52,3.93-1.75,5.97-2.58.52-.09.56.5,1.08.17,1.01-.6,2.05-1.47,3.21-1.63.55-.1,1.02-.31,1.47-.61,1.99-1.45,4.7-1.5,6.85-2.64.48-.19.52.24,1.2-.06,3.53-.95,6.98-2.97,10.83-3.24,2.55-.68,5.11-1.49,7.78-1.8.45-.12.76-.28.67-.77-.32-1.29-1.01-2.72-1.6-3.93-.42-1.37-1.38-2.95-1.27-4.28.03-.42-.06-.83-.33-1.22-1.3-1.81-1.41-4.1-1.96-6.15-.07-.84.28-1.71-.14-2.59-.88-1.72-.88-3.29-.92-5.01-.29-.96-.44-1.81-.17-2.64.02-.34-.15-.72-.15-1.12,0-.45.34-.9.17-1.19-.98-1.49-.04-3.56-.11-5.14.03-.36-.09-.48-.2-.62-.14-.21-.12-.23-.14-.44.09-1.03.41-2.09.45-3.06-.15-1.24-.04-2.51.37-3.59.21-.67-.34-.4-.27-.91.1-.48.44-1.18.35-1.73-.11-.6.28-1.08.35-1.64-.38-1.96.21-3.9,1.11-5.47.14-.51-.26-1.12-.21-1.69.04-.54.26-1.08.42-1.6.72-1.76.48-3.87,1.26-5.58.93-2.15.59-4.93,2.24-6.71.24-.35.18-.47-.07-.46-1.1-.17.86-3,.97-3.63.08-2.15,1.23-3.83,2-5.6.41-.94.2-2.06.52-3.03.51-1.27,1.36-2.29,1.69-3.61,4.1-11.61,9.45-23.01,16.14-33.22.82-1.49,1.49-3.11,2.23-4.69.2-.52.54-.68.76-.73.19-.04.28-.22.43-.62,1.03-2.01,1.96-4.08,3.56-5.71.87-2.28,2.56-4,3.83-6.01,1.29-2.74,3.23-5.1,5.19-7.36.96-1.45,2-2.94,3.33-4.05.37-.43.29-1.12.57-1.64,1.63-1.85,3.01-4.03,4.8-5.77,2.25-2.42,4.53-4.73,6.44-7.43.72-.72,1.83-1.1,2.53-1.91.93-1.04,1.43-2.49,2.52-3.42,1.03-1,2.35-1.4,3.34-2.36.55-.46.49-1.3.94-1.83,1.51-1.18,2.92-2.57,4.29-3.93,5.59-4.85,11.6-9.3,18.78-11.94,2.65-1.38,5.4-2.72,8.33-3.53.71-.23,1.47-.23,2.19-.45.58-.17,1-.57,1.51-.64.57-.08,1.28.35,1.82.17.55-.13.96-.71,1.5-.75.53-.05,1.16.19,1.7,0,1.16-.54,2.54.21,3.65-.3.46-.18,1.02-.06,1.53.1,1.67.26,1.97.28,3.58.26.61.13.7.66,1.5.67.08.01.23.04.31.05,1.04.28,2.19-.01,3.21.62.55.32,1.15.62,1.73.76.5.18.61.62,1.09.74,2.06.45,4.62,1.74,5.89,3.67.32.35.75.62.91.96.25.42-.08.98.03,1.38.12.13.59.02.75.6.34,1.31.79,2.83.91,4.13-.17,1.09-.36,2.18-.35,3.34-2.13,11.89-7.99,22.34-13.48,32.53-2.13,4.6-4.65,9.11-7.2,13.46-.81,1.59-1.43,3.61-2.89,4.71-.3.2-.37.31-.29.46.07.15.19.36.05.69-.76,1.45-1.58,2.85-2.31,4.32-2.41,4.84-4.79,9.71-7.89,14.1-.35.51-.13.99-.27,1.6-.11.37-.31.7-.49,1.04-.9,1.67-1.55,3.51-2.73,5-.25.59-.32,1.3-.79,1.76-.96.94-1.5,2.37-2.04,3.68-.13.36-.11.51.03.51.14.02.3,0,.24.27-.89,2.22-2.02,4.39-2.96,6.53-.32.64.03.72-.17,1.33-1.54,2.85-2.11,6.31-3.29,9.37-.25.62-.38,1.29-.42,1.98-.03,1.44-.85,2.75-.83,4.18.54,2.52-.18,5.1.74,7.63.45,1.83-2.23.5-2.53-.53-.25-.58-.91-.9-.98-1.54-.04-.43-.43-.9-.81-1.25-.26-.17-.47-.11-.67.06-.77.52-.24,2.05-.95,2.51-.05.02-.16.06-.22.08-.36.03-.38-.26-.51-.59-.65-.81-.74-2.09-.64-3.07-.01-.65-.27-1.11-.24-1.55.09-.43-.02-.54-.21-.73-.41-1.18,1.04-2.48.49-3.74-.42-.77.31-1.66.14-2.19-.1-.31-.35-.57-.3-1.1.32-3.68,1.27-7.07,2.08-10.61.17-.52.78-.74.64-1.3-.19-.43-.52-.98-.37-1.47.5-1.95,1.42-3.86,1.84-5.91-.16-1.31-.79-2.63-.45-3.92.13-.9.98-1.5,1.31-2.3.86-2.97,1.57-5.89,2.96-8.55.73-2.93,1.63-5.8,2.23-8.77.41-.82,1.25-1.22,1.41-2.16,1.55-4.69,3.79-8.72,6.56-12.66,3.04-7.09,6.8-13.85,10.73-20.53.14-.22.32-.38.53-.49.28-.17.5-.19.32-.51-.1-.19-.29-.46-.22-.72.6-1.39,1.91-2.72,2.61-4.07.1-.25-.29-.18-.37-.38.6-1.68,2.04-3.29,2.89-4.87,1.16-3.72,2.67-7.46,4.41-10.98.44-.78.7-1.64.83-2.56.1-.55.22-1.02-.33-1.26-.85-.25-1.96-.33-2.83-.55-.38-.12-.59-.3-.93-.42-.52-.13-1.07.02-1.59.08-1.5.32-3.1.13-4.57.37-2.55.49-5.07,1.62-7.4,2.65-.5.17-1.12.08-1.59.32-.46.25-.76.72-1.22.99-2.65,1.52-5.32,3-7.94,4.47-2.19,2.25-4.88,4-7.22,6.11-2.35,1.83-4.63,3.66-6.46,6.02-.53.57-1.4.74-1.76,1.4-.24.43-.54.87-.96,1.2-.83.82-2.1,1-2.91,1.87-1.93,1.75-2.33,4.26-3.97,6.13-2.39,2.5-4.49,5.33-6.83,7.91-1.38,1.26-2.74,2.51-3.28,4.37-.52.83-1.69,1.46-1.8,2.36-.05.26-.07.51-.16.75-3.26,3.41-5.91,7.46-8.21,11.66-2.27,3.23-4.27,6.68-6.34,10.05l-.06.12Z"/>
        <path class="cls-2" d="M688.58,337.67c.01-.07.02-.14.03-.21,0,.07-.02.14-.03.21Z"/>
      </g>
    </g>
  </g>
</svg>